<svg class="main-svg" xmlns="http://www.w3.org/2000/svg" xmlns:xlink="http://www.w3.org/1999/xlink" width="700" height="500" style="" viewBox="0 0 700 500"><rect x="0" y="0" width="700" height="500" style="fill: rgb(255, 255, 255); fill-opacity: 1;"/><defs id="defs-d09e61"><g class="clips"><clipPath id="clipd09e61xyplot" class="plotclip"><rect width="422" height="360"/></clipPath><clipPath class="axesclip" id="clipd09e61x"><rect x="125" y="0" width="422" height="500"/></clipPath><clipPath class="axesclip" id="clipd09e61y"><rect x="0" y="60" width="700" height="360"/></clipPath><clipPath class="axesclip" id="clipd09e61xy"><rect x="125" y="60" width="422" height="360"/></clipPath></g><g class="gradients"/><g class="patterns"/></defs><g class="bglayer"/><g class="layer-below"><g class="imagelayer"/><g class="shapelayer"/></g><g class="cartesianlayer"><g class="subplot xy"><g class="layer-subplot"><g class="shapelayer"/><g class="imagelayer"/></g><g class="minor-gridlayer"><g class="x"/><g class="y"/></g><g class="gridlayer"><g class="x"><path class="xgrid crisp" transform="translate(183.98,0)" d="M0,60v360" style="stroke: rgb(235, 240, 248); stroke-opacity: 1; stroke-width: 1px;"/><path class="xgrid crisp" transform="translate(283.28,0)" d="M0,60v360" style="stroke: rgb(235, 240, 248); stroke-opacity: 1; stroke-width: 1px;"/><path class="xgrid crisp" transform="translate(382.59,0)" d="M0,60v360" style="stroke: rgb(235, 240, 248); stroke-opacity: 1; stroke-width: 1px;"/><path class="xgrid crisp" transform="translate(481.9,0)" d="M0,60v360" style="stroke: rgb(235, 240, 248); stroke-opacity: 1; stroke-width: 1px;"/></g><g class="y"/></g><g class="zerolinelayer"/><g class="layer-between"><g class="shapelayer"/><g class="imagelayer"/></g><path class="xlines-below"/><path class="ylines-below"/><g class="overlines-below"/><g class="xaxislayer-below"/><g class="yaxislayer-below"/><g class="overaxes-below"/><g class="overplot"><g class="xy" transform="translate(125,60)" clip-path="url(#clipd09e61xyplot)"><g class="boxlayer mlayer"><g class="trace boxes" style="opacity: 1;"><path class="box" d="M226.57,29.8V10.2M213.54,29.8V10.2H237.28V29.8ZM213.54,20H-4009M237.28,20H247.75M-4009,24.9V15.1M247.75,24.9V15.1" style="vector-effect: none; stroke-width: 2px; stroke: rgb(214, 99, 236); stroke-opacity: 1; fill: rgb(214, 99, 236); fill-opacity: 0.5;"/><g class="points"><path class="point" transform="translate(249.37,20)" d="M3,0A3,3 0 1,1 0,-3A3,3 0 0,1 3,0Z" style="opacity: 1; stroke-width: 0px; fill: rgb(214, 99, 236); fill-opacity: 1;"/><path class="point" transform="translate(249.55,20)" d="M3,0A3,3 0 1,1 0,-3A3,3 0 0,1 3,0Z" style="opacity: 1; stroke-width: 0px; fill: rgb(214, 99, 236); fill-opacity: 1;"/><path class="point" transform="translate(250.4,20)" d="M3,0A3,3 0 1,1 0,-3A3,3 0 0,1 3,0Z" style="opacity: 1; stroke-width: 0px; fill: rgb(214, 99, 236); fill-opacity: 1;"/><path class="point" transform="translate(251,20)" d="M3,0A3,3 0 1,1 0,-3A3,3 0 0,1 3,0Z" style="opacity: 1; stroke-width: 0px; fill: rgb(214, 99, 236); fill-opacity: 1;"/><path class="point" transform="translate(251.33,20)" d="M3,0A3,3 0 1,1 0,-3A3,3 0 0,1 3,0Z" style="opacity: 1; stroke-width: 0px; fill: rgb(214, 99, 236); fill-opacity: 1;"/><path class="point" transform="translate(251.35,20)" d="M3,0A3,3 0 1,1 0,-3A3,3 0 0,1 3,0Z" style="opacity: 1; stroke-width: 0px; fill: rgb(214, 99, 236); fill-opacity: 1;"/><path class="point" transform="translate(251.36,20)" d="M3,0A3,3 0 1,1 0,-3A3,3 0 0,1 3,0Z" style="opacity: 1; stroke-width: 0px; fill: rgb(214, 99, 236); fill-opacity: 1;"/><path class="point" transform="translate(251.44,20)" d="M3,0A3,3 0 1,1 0,-3A3,3 0 0,1 3,0Z" style="opacity: 1; stroke-width: 0px; fill: rgb(214, 99, 236); fill-opacity: 1;"/><path class="point" transform="translate(252.15,20)" d="M3,0A3,3 0 1,1 0,-3A3,3 0 0,1 3,0Z" style="opacity: 1; stroke-width: 0px; fill: rgb(214, 99, 236); fill-opacity: 1;"/><path class="point" transform="translate(252.18,20)" d="M3,0A3,3 0 1,1 0,-3A3,3 0 0,1 3,0Z" style="opacity: 1; stroke-width: 0px; fill: rgb(214, 99, 236); fill-opacity: 1;"/><path class="point" transform="translate(252.39,20)" d="M3,0A3,3 0 1,1 0,-3A3,3 0 0,1 3,0Z" style="opacity: 1; stroke-width: 0px; fill: rgb(214, 99, 236); fill-opacity: 1;"/><path class="point" transform="translate(255.27,20)" d="M3,0A3,3 0 1,1 0,-3A3,3 0 0,1 3,0Z" style="opacity: 1; stroke-width: 0px; fill: rgb(214, 99, 236); fill-opacity: 1;"/><path class="point" transform="translate(255.94,20)" d="M3,0A3,3 0 1,1 0,-3A3,3 0 0,1 3,0Z" style="opacity: 1; stroke-width: 0px; fill: rgb(214, 99, 236); fill-opacity: 1;"/><path class="point" transform="translate(258.29,20)" d="M3,0A3,3 0 1,1 0,-3A3,3 0 0,1 3,0Z" style="opacity: 1; stroke-width: 0px; fill: rgb(214, 99, 236); fill-opacity: 1;"/><path class="point" transform="translate(259.04,20)" d="M3,0A3,3 0 1,1 0,-3A3,3 0 0,1 3,0Z" style="opacity: 1; stroke-width: 0px; fill: rgb(214, 99, 236); fill-opacity: 1;"/><path class="point" transform="translate(266.57,20)" d="M3,0A3,3 0 1,1 0,-3A3,3 0 0,1 3,0Z" style="opacity: 1; stroke-width: 0px; fill: rgb(214, 99, 236); fill-opacity: 1;"/><path class="point" transform="translate(291.04,20)" d="M3,0A3,3 0 1,1 0,-3A3,3 0 0,1 3,0Z" style="opacity: 1; stroke-width: 0px; fill: rgb(214, 99, 236); fill-opacity: 1;"/><path class="point" transform="translate(310.64,20)" d="M3,0A3,3 0 1,1 0,-3A3,3 0 0,1 3,0Z" style="opacity: 1; stroke-width: 0px; fill: rgb(214, 99, 236); fill-opacity: 1;"/></g></g><g class="trace boxes" style="opacity: 1;"><path class="box" d="M235.79,69.8V50.2M227.3,69.8V50.2H245.32V69.8ZM227.3,60H-4009M245.32,60H255.53M-4009,64.9V55.1M255.53,64.9V55.1" style="vector-effect: none; stroke-width: 2px; stroke: rgb(87, 180, 36); stroke-opacity: 1; fill: rgb(87, 180, 36); fill-opacity: 0.5;"/><g class="points"><path class="point" transform="translate(255.79,60)" d="M3,0A3,3 0 1,1 0,-3A3,3 0 0,1 3,0Z" style="opacity: 1; stroke-width: 0px; fill: rgb(87, 180, 36); fill-opacity: 1;"/><path class="point" transform="translate(256.11,60)" d="M3,0A3,3 0 1,1 0,-3A3,3 0 0,1 3,0Z" style="opacity: 1; stroke-width: 0px; fill: rgb(87, 180, 36); fill-opacity: 1;"/><path class="point" transform="translate(256.48,60)" d="M3,0A3,3 0 1,1 0,-3A3,3 0 0,1 3,0Z" style="opacity: 1; stroke-width: 0px; fill: rgb(87, 180, 36); fill-opacity: 1;"/><path class="point" transform="translate(256.78,60)" d="M3,0A3,3 0 1,1 0,-3A3,3 0 0,1 3,0Z" style="opacity: 1; stroke-width: 0px; fill: rgb(87, 180, 36); fill-opacity: 1;"/><path class="point" transform="translate(256.81,60)" d="M3,0A3,3 0 1,1 0,-3A3,3 0 0,1 3,0Z" style="opacity: 1; stroke-width: 0px; fill: rgb(87, 180, 36); fill-opacity: 1;"/><path class="point" transform="translate(256.87,60)" d="M3,0A3,3 0 1,1 0,-3A3,3 0 0,1 3,0Z" style="opacity: 1; stroke-width: 0px; fill: rgb(87, 180, 36); fill-opacity: 1;"/><path class="point" transform="translate(257.15,60)" d="M3,0A3,3 0 1,1 0,-3A3,3 0 0,1 3,0Z" style="opacity: 1; stroke-width: 0px; fill: rgb(87, 180, 36); fill-opacity: 1;"/><path class="point" transform="translate(257.2,60)" d="M3,0A3,3 0 1,1 0,-3A3,3 0 0,1 3,0Z" style="opacity: 1; stroke-width: 0px; fill: rgb(87, 180, 36); fill-opacity: 1;"/><path class="point" transform="translate(257.27,60)" d="M3,0A3,3 0 1,1 0,-3A3,3 0 0,1 3,0Z" style="opacity: 1; stroke-width: 0px; fill: rgb(87, 180, 36); fill-opacity: 1;"/><path class="point" transform="translate(257.39,60)" d="M3,0A3,3 0 1,1 0,-3A3,3 0 0,1 3,0Z" style="opacity: 1; stroke-width: 0px; fill: rgb(87, 180, 36); fill-opacity: 1;"/><path class="point" transform="translate(257.55,60)" d="M3,0A3,3 0 1,1 0,-3A3,3 0 0,1 3,0Z" style="opacity: 1; stroke-width: 0px; fill: rgb(87, 180, 36); fill-opacity: 1;"/><path class="point" transform="translate(257.65,60)" d="M3,0A3,3 0 1,1 0,-3A3,3 0 0,1 3,0Z" style="opacity: 1; stroke-width: 0px; fill: rgb(87, 180, 36); fill-opacity: 1;"/><path class="point" transform="translate(257.71,60)" d="M3,0A3,3 0 1,1 0,-3A3,3 0 0,1 3,0Z" style="opacity: 1; stroke-width: 0px; fill: rgb(87, 180, 36); fill-opacity: 1;"/><path class="point" transform="translate(258.24,60)" d="M3,0A3,3 0 1,1 0,-3A3,3 0 0,1 3,0Z" style="opacity: 1; stroke-width: 0px; fill: rgb(87, 180, 36); fill-opacity: 1;"/><path class="point" transform="translate(259.46,60)" d="M3,0A3,3 0 1,1 0,-3A3,3 0 0,1 3,0Z" style="opacity: 1; stroke-width: 0px; fill: rgb(87, 180, 36); fill-opacity: 1;"/><path class="point" transform="translate(259.5,60)" d="M3,0A3,3 0 1,1 0,-3A3,3 0 0,1 3,0Z" style="opacity: 1; stroke-width: 0px; fill: rgb(87, 180, 36); fill-opacity: 1;"/><path class="point" transform="translate(259.82,60)" d="M3,0A3,3 0 1,1 0,-3A3,3 0 0,1 3,0Z" style="opacity: 1; stroke-width: 0px; fill: rgb(87, 180, 36); fill-opacity: 1;"/><path class="point" transform="translate(260.63,60)" d="M3,0A3,3 0 1,1 0,-3A3,3 0 0,1 3,0Z" style="opacity: 1; stroke-width: 0px; fill: rgb(87, 180, 36); fill-opacity: 1;"/><path class="point" transform="translate(261.45,60)" d="M3,0A3,3 0 1,1 0,-3A3,3 0 0,1 3,0Z" style="opacity: 1; stroke-width: 0px; fill: rgb(87, 180, 36); fill-opacity: 1;"/><path class="point" transform="translate(262.58,60)" d="M3,0A3,3 0 1,1 0,-3A3,3 0 0,1 3,0Z" style="opacity: 1; stroke-width: 0px; fill: rgb(87, 180, 36); fill-opacity: 1;"/><path class="point" transform="translate(262.59,60)" d="M3,0A3,3 0 1,1 0,-3A3,3 0 0,1 3,0Z" style="opacity: 1; stroke-width: 0px; fill: rgb(87, 180, 36); fill-opacity: 1;"/><path class="point" transform="translate(262.71,60)" d="M3,0A3,3 0 1,1 0,-3A3,3 0 0,1 3,0Z" style="opacity: 1; stroke-width: 0px; fill: rgb(87, 180, 36); fill-opacity: 1;"/><path class="point" transform="translate(263.17,60)" d="M3,0A3,3 0 1,1 0,-3A3,3 0 0,1 3,0Z" style="opacity: 1; stroke-width: 0px; fill: rgb(87, 180, 36); fill-opacity: 1;"/><path class="point" transform="translate(263.55,60)" d="M3,0A3,3 0 1,1 0,-3A3,3 0 0,1 3,0Z" style="opacity: 1; stroke-width: 0px; fill: rgb(87, 180, 36); fill-opacity: 1;"/><path class="point" transform="translate(264.87,60)" d="M3,0A3,3 0 1,1 0,-3A3,3 0 0,1 3,0Z" style="opacity: 1; stroke-width: 0px; fill: rgb(87, 180, 36); fill-opacity: 1;"/><path class="point" transform="translate(267.13,60)" d="M3,0A3,3 0 1,1 0,-3A3,3 0 0,1 3,0Z" style="opacity: 1; stroke-width: 0px; fill: rgb(87, 180, 36); fill-opacity: 1;"/><path class="point" transform="translate(268.08,60)" d="M3,0A3,3 0 1,1 0,-3A3,3 0 0,1 3,0Z" style="opacity: 1; stroke-width: 0px; fill: rgb(87, 180, 36); fill-opacity: 1;"/><path class="point" transform="translate(268.6,60)" d="M3,0A3,3 0 1,1 0,-3A3,3 0 0,1 3,0Z" style="opacity: 1; stroke-width: 0px; fill: rgb(87, 180, 36); fill-opacity: 1;"/><path class="point" transform="translate(268.83,60)" d="M3,0A3,3 0 1,1 0,-3A3,3 0 0,1 3,0Z" style="opacity: 1; stroke-width: 0px; fill: rgb(87, 180, 36); fill-opacity: 1;"/><path class="point" transform="translate(269.24,60)" d="M3,0A3,3 0 1,1 0,-3A3,3 0 0,1 3,0Z" style="opacity: 1; stroke-width: 0px; fill: rgb(87, 180, 36); fill-opacity: 1;"/><path class="point" transform="translate(269.7,60)" d="M3,0A3,3 0 1,1 0,-3A3,3 0 0,1 3,0Z" style="opacity: 1; stroke-width: 0px; fill: rgb(87, 180, 36); fill-opacity: 1;"/><path class="point" transform="translate(269.96,60)" d="M3,0A3,3 0 1,1 0,-3A3,3 0 0,1 3,0Z" style="opacity: 1; stroke-width: 0px; fill: rgb(87, 180, 36); fill-opacity: 1;"/><path class="point" transform="translate(270.99,60)" d="M3,0A3,3 0 1,1 0,-3A3,3 0 0,1 3,0Z" style="opacity: 1; stroke-width: 0px; fill: rgb(87, 180, 36); fill-opacity: 1;"/><path class="point" transform="translate(271.81,60)" d="M3,0A3,3 0 1,1 0,-3A3,3 0 0,1 3,0Z" style="opacity: 1; stroke-width: 0px; fill: rgb(87, 180, 36); fill-opacity: 1;"/><path class="point" transform="translate(271.84,60)" d="M3,0A3,3 0 1,1 0,-3A3,3 0 0,1 3,0Z" style="opacity: 1; stroke-width: 0px; fill: rgb(87, 180, 36); fill-opacity: 1;"/><path class="point" transform="translate(273.23,60)" d="M3,0A3,3 0 1,1 0,-3A3,3 0 0,1 3,0Z" style="opacity: 1; stroke-width: 0px; fill: rgb(87, 180, 36); fill-opacity: 1;"/><path class="point" transform="translate(274.85,60)" d="M3,0A3,3 0 1,1 0,-3A3,3 0 0,1 3,0Z" style="opacity: 1; stroke-width: 0px; fill: rgb(87, 180, 36); fill-opacity: 1;"/><path class="point" transform="translate(275.31,60)" d="M3,0A3,3 0 1,1 0,-3A3,3 0 0,1 3,0Z" style="opacity: 1; stroke-width: 0px; fill: rgb(87, 180, 36); fill-opacity: 1;"/><path class="point" transform="translate(277.15,60)" d="M3,0A3,3 0 1,1 0,-3A3,3 0 0,1 3,0Z" style="opacity: 1; stroke-width: 0px; fill: rgb(87, 180, 36); fill-opacity: 1;"/><path class="point" transform="translate(280.48,60)" d="M3,0A3,3 0 1,1 0,-3A3,3 0 0,1 3,0Z" style="opacity: 1; stroke-width: 0px; fill: rgb(87, 180, 36); fill-opacity: 1;"/><path class="point" transform="translate(282.04,60)" d="M3,0A3,3 0 1,1 0,-3A3,3 0 0,1 3,0Z" style="opacity: 1; stroke-width: 0px; fill: rgb(87, 180, 36); fill-opacity: 1;"/><path class="point" transform="translate(282.19,60)" d="M3,0A3,3 0 1,1 0,-3A3,3 0 0,1 3,0Z" style="opacity: 1; stroke-width: 0px; fill: rgb(87, 180, 36); fill-opacity: 1;"/><path class="point" transform="translate(285.15,60)" d="M3,0A3,3 0 1,1 0,-3A3,3 0 0,1 3,0Z" style="opacity: 1; stroke-width: 0px; fill: rgb(87, 180, 36); fill-opacity: 1;"/><path class="point" transform="translate(288.1,60)" d="M3,0A3,3 0 1,1 0,-3A3,3 0 0,1 3,0Z" style="opacity: 1; stroke-width: 0px; fill: rgb(87, 180, 36); fill-opacity: 1;"/><path class="point" transform="translate(289.31,60)" d="M3,0A3,3 0 1,1 0,-3A3,3 0 0,1 3,0Z" style="opacity: 1; stroke-width: 0px; fill: rgb(87, 180, 36); fill-opacity: 1;"/><path class="point" transform="translate(289.31,60)" d="M3,0A3,3 0 1,1 0,-3A3,3 0 0,1 3,0Z" style="opacity: 1; stroke-width: 0px; fill: rgb(87, 180, 36); fill-opacity: 1;"/><path class="point" transform="translate(296.35,60)" d="M3,0A3,3 0 1,1 0,-3A3,3 0 0,1 3,0Z" style="opacity: 1; stroke-width: 0px; fill: rgb(87, 180, 36); fill-opacity: 1;"/><path class="point" transform="translate(296.71,60)" d="M3,0A3,3 0 1,1 0,-3A3,3 0 0,1 3,0Z" style="opacity: 1; stroke-width: 0px; fill: rgb(87, 180, 36); fill-opacity: 1;"/><path class="point" transform="translate(301.39,60)" d="M3,0A3,3 0 1,1 0,-3A3,3 0 0,1 3,0Z" style="opacity: 1; stroke-width: 0px; fill: rgb(87, 180, 36); fill-opacity: 1;"/><path class="point" transform="translate(312.14,60)" d="M3,0A3,3 0 1,1 0,-3A3,3 0 0,1 3,0Z" style="opacity: 1; stroke-width: 0px; fill: rgb(87, 180, 36); fill-opacity: 1;"/><path class="point" transform="translate(317.84,60)" d="M3,0A3,3 0 1,1 0,-3A3,3 0 0,1 3,0Z" style="opacity: 1; stroke-width: 0px; fill: rgb(87, 180, 36); fill-opacity: 1;"/><path class="point" transform="translate(318.38,60)" d="M3,0A3,3 0 1,1 0,-3A3,3 0 0,1 3,0Z" style="opacity: 1; stroke-width: 0px; fill: rgb(87, 180, 36); fill-opacity: 1;"/><path class="point" transform="translate(331.09,60)" d="M3,0A3,3 0 1,1 0,-3A3,3 0 0,1 3,0Z" style="opacity: 1; stroke-width: 0px; fill: rgb(87, 180, 36); fill-opacity: 1;"/><path class="point" transform="translate(334.83,60)" d="M3,0A3,3 0 1,1 0,-3A3,3 0 0,1 3,0Z" style="opacity: 1; stroke-width: 0px; fill: rgb(87, 180, 36); fill-opacity: 1;"/><path class="point" transform="translate(336.8,60)" d="M3,0A3,3 0 1,1 0,-3A3,3 0 0,1 3,0Z" style="opacity: 1; stroke-width: 0px; fill: rgb(87, 180, 36); fill-opacity: 1;"/><path class="point" transform="translate(342.99,60)" d="M3,0A3,3 0 1,1 0,-3A3,3 0 0,1 3,0Z" style="opacity: 1; stroke-width: 0px; fill: rgb(87, 180, 36); fill-opacity: 1;"/><path class="point" transform="translate(347.53,60)" d="M3,0A3,3 0 1,1 0,-3A3,3 0 0,1 3,0Z" style="opacity: 1; stroke-width: 0px; fill: rgb(87, 180, 36); fill-opacity: 1;"/><path class="point" transform="translate(355.55,60)" d="M3,0A3,3 0 1,1 0,-3A3,3 0 0,1 3,0Z" style="opacity: 1; stroke-width: 0px; fill: rgb(87, 180, 36); fill-opacity: 1;"/><path class="point" transform="translate(355.86,60)" d="M3,0A3,3 0 1,1 0,-3A3,3 0 0,1 3,0Z" style="opacity: 1; stroke-width: 0px; fill: rgb(87, 180, 36); fill-opacity: 1;"/><path class="point" transform="translate(356.7,60)" d="M3,0A3,3 0 1,1 0,-3A3,3 0 0,1 3,0Z" style="opacity: 1; stroke-width: 0px; fill: rgb(87, 180, 36); fill-opacity: 1;"/><path class="point" transform="translate(359.48,60)" d="M3,0A3,3 0 1,1 0,-3A3,3 0 0,1 3,0Z" style="opacity: 1; stroke-width: 0px; fill: rgb(87, 180, 36); fill-opacity: 1;"/><path class="point" transform="translate(359.7,60)" d="M3,0A3,3 0 1,1 0,-3A3,3 0 0,1 3,0Z" style="opacity: 1; stroke-width: 0px; fill: rgb(87, 180, 36); fill-opacity: 1;"/><path class="point" transform="translate(359.93,60)" d="M3,0A3,3 0 1,1 0,-3A3,3 0 0,1 3,0Z" style="opacity: 1; stroke-width: 0px; fill: rgb(87, 180, 36); fill-opacity: 1;"/><path class="point" transform="translate(361.98,60)" d="M3,0A3,3 0 1,1 0,-3A3,3 0 0,1 3,0Z" style="opacity: 1; stroke-width: 0px; fill: rgb(87, 180, 36); fill-opacity: 1;"/><path class="point" transform="translate(368.54,60)" d="M3,0A3,3 0 1,1 0,-3A3,3 0 0,1 3,0Z" style="opacity: 1; stroke-width: 0px; fill: rgb(87, 180, 36); fill-opacity: 1;"/><path class="point" transform="translate(375.35,60)" d="M3,0A3,3 0 1,1 0,-3A3,3 0 0,1 3,0Z" style="opacity: 1; stroke-width: 0px; fill: rgb(87, 180, 36); fill-opacity: 1;"/><path class="point" transform="translate(376.59,60)" d="M3,0A3,3 0 1,1 0,-3A3,3 0 0,1 3,0Z" style="opacity: 1; stroke-width: 0px; fill: rgb(87, 180, 36); fill-opacity: 1;"/><path class="point" transform="translate(400.9,60)" d="M3,0A3,3 0 1,1 0,-3A3,3 0 0,1 3,0Z" style="opacity: 1; stroke-width: 0px; fill: rgb(87, 180, 36); fill-opacity: 1;"/></g></g><g class="trace boxes" style="opacity: 1;"><path class="box" d="M204.72,109.8V90.2M192.17,109.8V90.2H222.51V109.8ZM192.17,100H-4009M222.51,100H233.83M-4009,104.9V95.1M233.83,104.9V95.1" style="vector-effect: none; stroke-width: 2px; stroke: rgb(86, 180, 233); stroke-opacity: 1; fill: rgb(86, 180, 233); fill-opacity: 0.5;"/><g class="points"><path class="point" transform="translate(234.84,100)" d="M3,0A3,3 0 1,1 0,-3A3,3 0 0,1 3,0Z" style="opacity: 1; stroke-width: 0px; fill: rgb(86, 180, 233); fill-opacity: 1;"/><path class="point" transform="translate(235.34,100)" d="M3,0A3,3 0 1,1 0,-3A3,3 0 0,1 3,0Z" style="opacity: 1; stroke-width: 0px; fill: rgb(86, 180, 233); fill-opacity: 1;"/><path class="point" transform="translate(235.36,100)" d="M3,0A3,3 0 1,1 0,-3A3,3 0 0,1 3,0Z" style="opacity: 1; stroke-width: 0px; fill: rgb(86, 180, 233); fill-opacity: 1;"/><path class="point" transform="translate(243.18,100)" d="M3,0A3,3 0 1,1 0,-3A3,3 0 0,1 3,0Z" style="opacity: 1; stroke-width: 0px; fill: rgb(86, 180, 233); fill-opacity: 1;"/><path class="point" transform="translate(245.89,100)" d="M3,0A3,3 0 1,1 0,-3A3,3 0 0,1 3,0Z" style="opacity: 1; stroke-width: 0px; fill: rgb(86, 180, 233); fill-opacity: 1;"/><path class="point" transform="translate(253.98,100)" d="M3,0A3,3 0 1,1 0,-3A3,3 0 0,1 3,0Z" style="opacity: 1; stroke-width: 0px; fill: rgb(86, 180, 233); fill-opacity: 1;"/><path class="point" transform="translate(254.34,100)" d="M3,0A3,3 0 1,1 0,-3A3,3 0 0,1 3,0Z" style="opacity: 1; stroke-width: 0px; fill: rgb(86, 180, 233); fill-opacity: 1;"/><path class="point" transform="translate(286.54,100)" d="M3,0A3,3 0 1,1 0,-3A3,3 0 0,1 3,0Z" style="opacity: 1; stroke-width: 0px; fill: rgb(86, 180, 233); fill-opacity: 1;"/><path class="point" transform="translate(287.86,100)" d="M3,0A3,3 0 1,1 0,-3A3,3 0 0,1 3,0Z" style="opacity: 1; stroke-width: 0px; fill: rgb(86, 180, 233); fill-opacity: 1;"/><path class="point" transform="translate(315.18,100)" d="M3,0A3,3 0 1,1 0,-3A3,3 0 0,1 3,0Z" style="opacity: 1; stroke-width: 0px; fill: rgb(86, 180, 233); fill-opacity: 1;"/><path class="point" transform="translate(317.4,100)" d="M3,0A3,3 0 1,1 0,-3A3,3 0 0,1 3,0Z" style="opacity: 1; stroke-width: 0px; fill: rgb(86, 180, 233); fill-opacity: 1;"/><path class="point" transform="translate(317.4,100)" d="M3,0A3,3 0 1,1 0,-3A3,3 0 0,1 3,0Z" style="opacity: 1; stroke-width: 0px; fill: rgb(86, 180, 233); fill-opacity: 1;"/><path class="point" transform="translate(317.45,100)" d="M3,0A3,3 0 1,1 0,-3A3,3 0 0,1 3,0Z" style="opacity: 1; stroke-width: 0px; fill: rgb(86, 180, 233); fill-opacity: 1;"/><path class="point" transform="translate(318.39,100)" d="M3,0A3,3 0 1,1 0,-3A3,3 0 0,1 3,0Z" style="opacity: 1; stroke-width: 0px; fill: rgb(86, 180, 233); fill-opacity: 1;"/><path class="point" transform="translate(318.93,100)" d="M3,0A3,3 0 1,1 0,-3A3,3 0 0,1 3,0Z" style="opacity: 1; stroke-width: 0px; fill: rgb(86, 180, 233); fill-opacity: 1;"/><path class="point" transform="translate(319.3,100)" d="M3,0A3,3 0 1,1 0,-3A3,3 0 0,1 3,0Z" style="opacity: 1; stroke-width: 0px; fill: rgb(86, 180, 233); fill-opacity: 1;"/><path class="point" transform="translate(319.3,100)" d="M3,0A3,3 0 1,1 0,-3A3,3 0 0,1 3,0Z" style="opacity: 1; stroke-width: 0px; fill: rgb(86, 180, 233); fill-opacity: 1;"/><path class="point" transform="translate(319.37,100)" d="M3,0A3,3 0 1,1 0,-3A3,3 0 0,1 3,0Z" style="opacity: 1; stroke-width: 0px; fill: rgb(86, 180, 233); fill-opacity: 1;"/><path class="point" transform="translate(319.69,100)" d="M3,0A3,3 0 1,1 0,-3A3,3 0 0,1 3,0Z" style="opacity: 1; stroke-width: 0px; fill: rgb(86, 180, 233); fill-opacity: 1;"/><path class="point" transform="translate(320.47,100)" d="M3,0A3,3 0 1,1 0,-3A3,3 0 0,1 3,0Z" style="opacity: 1; stroke-width: 0px; fill: rgb(86, 180, 233); fill-opacity: 1;"/><path class="point" transform="translate(320.47,100)" d="M3,0A3,3 0 1,1 0,-3A3,3 0 0,1 3,0Z" style="opacity: 1; stroke-width: 0px; fill: rgb(86, 180, 233); fill-opacity: 1;"/></g></g><g class="trace boxes" style="opacity: 1;"><path class="box" d="M219.76,149.8V130.2M214.11,149.8V130.2H225.7V149.8ZM214.11,140H184.79M225.7,140H233.5M184.79,144.9V135.1M233.5,144.9V135.1" style="vector-effect: none; stroke-width: 2px; stroke: rgb(240, 179, 66); stroke-opacity: 1; fill: rgb(240, 179, 66); fill-opacity: 0.5;"/><g class="points"><path class="point" d="M3,0A3,3 0 1,1 0,-3A3,3 0 0,1 3,0Z" style="opacity: 1; stroke-width: 0px; fill: rgb(240, 179, 66); fill-opacity: 1;"/><path class="point" transform="translate(236.2,140)" d="M3,0A3,3 0 1,1 0,-3A3,3 0 0,1 3,0Z" style="opacity: 1; stroke-width: 0px; fill: rgb(240, 179, 66); fill-opacity: 1;"/><path class="point" transform="translate(237.27,140)" d="M3,0A3,3 0 1,1 0,-3A3,3 0 0,1 3,0Z" style="opacity: 1; stroke-width: 0px; fill: rgb(240, 179, 66); fill-opacity: 1;"/><path class="point" transform="translate(238.31,140)" d="M3,0A3,3 0 1,1 0,-3A3,3 0 0,1 3,0Z" style="opacity: 1; stroke-width: 0px; fill: rgb(240, 179, 66); fill-opacity: 1;"/><path class="point" transform="translate(244.39,140)" d="M3,0A3,3 0 1,1 0,-3A3,3 0 0,1 3,0Z" style="opacity: 1; stroke-width: 0px; fill: rgb(240, 179, 66); fill-opacity: 1;"/></g></g><g class="trace boxes" style="opacity: 1;"><path class="box" d="M254.93,189.8V170.2M243.75,189.8V170.2H270.83V189.8ZM243.75,180H184.3M270.83,180H275.91M184.3,184.9V175.1M275.91,184.9V175.1" style="vector-effect: none; stroke-width: 2px; stroke: rgb(0, 114, 178); stroke-opacity: 1; fill: rgb(0, 114, 178); fill-opacity: 0.5;"/><g class="points"><path class="point" transform="translate(283.31,180)" d="M3,0A3,3 0 1,1 0,-3A3,3 0 0,1 3,0Z" style="opacity: 1; stroke-width: 0px; fill: rgb(0, 114, 178); fill-opacity: 1;"/><path class="point" transform="translate(288.6,180)" d="M3,0A3,3 0 1,1 0,-3A3,3 0 0,1 3,0Z" style="opacity: 1; stroke-width: 0px; fill: rgb(0, 114, 178); fill-opacity: 1;"/><path class="point" transform="translate(291.41,180)" d="M3,0A3,3 0 1,1 0,-3A3,3 0 0,1 3,0Z" style="opacity: 1; stroke-width: 0px; fill: rgb(0, 114, 178); fill-opacity: 1;"/><path class="point" transform="translate(294.95,180)" d="M3,0A3,3 0 1,1 0,-3A3,3 0 0,1 3,0Z" style="opacity: 1; stroke-width: 0px; fill: rgb(0, 114, 178); fill-opacity: 1;"/><path class="point" transform="translate(307.8,180)" d="M3,0A3,3 0 1,1 0,-3A3,3 0 0,1 3,0Z" style="opacity: 1; stroke-width: 0px; fill: rgb(0, 114, 178); fill-opacity: 1;"/><path class="point" transform="translate(338.45,180)" d="M3,0A3,3 0 1,1 0,-3A3,3 0 0,1 3,0Z" style="opacity: 1; stroke-width: 0px; fill: rgb(0, 114, 178); fill-opacity: 1;"/><path class="point" transform="translate(338.92,180)" d="M3,0A3,3 0 1,1 0,-3A3,3 0 0,1 3,0Z" style="opacity: 1; stroke-width: 0px; fill: rgb(0, 114, 178); fill-opacity: 1;"/><path class="point" transform="translate(341.11,180)" d="M3,0A3,3 0 1,1 0,-3A3,3 0 0,1 3,0Z" style="opacity: 1; stroke-width: 0px; fill: rgb(0, 114, 178); fill-opacity: 1;"/><path class="point" transform="translate(341.27,180)" d="M3,0A3,3 0 1,1 0,-3A3,3 0 0,1 3,0Z" style="opacity: 1; stroke-width: 0px; fill: rgb(0, 114, 178); fill-opacity: 1;"/><path class="point" transform="translate(341.66,180)" d="M3,0A3,3 0 1,1 0,-3A3,3 0 0,1 3,0Z" style="opacity: 1; stroke-width: 0px; fill: rgb(0, 114, 178); fill-opacity: 1;"/><path class="point" transform="translate(343.52,180)" d="M3,0A3,3 0 1,1 0,-3A3,3 0 0,1 3,0Z" style="opacity: 1; stroke-width: 0px; fill: rgb(0, 114, 178); fill-opacity: 1;"/><path class="point" transform="translate(346.07,180)" d="M3,0A3,3 0 1,1 0,-3A3,3 0 0,1 3,0Z" style="opacity: 1; stroke-width: 0px; fill: rgb(0, 114, 178); fill-opacity: 1;"/><path class="point" transform="translate(346.11,180)" d="M3,0A3,3 0 1,1 0,-3A3,3 0 0,1 3,0Z" style="opacity: 1; stroke-width: 0px; fill: rgb(0, 114, 178); fill-opacity: 1;"/><path class="point" transform="translate(348.5,180)" d="M3,0A3,3 0 1,1 0,-3A3,3 0 0,1 3,0Z" style="opacity: 1; stroke-width: 0px; fill: rgb(0, 114, 178); fill-opacity: 1;"/><path class="point" transform="translate(353.08,180)" d="M3,0A3,3 0 1,1 0,-3A3,3 0 0,1 3,0Z" style="opacity: 1; stroke-width: 0px; fill: rgb(0, 114, 178); fill-opacity: 1;"/><path class="point" transform="translate(355.13,180)" d="M3,0A3,3 0 1,1 0,-3A3,3 0 0,1 3,0Z" style="opacity: 1; stroke-width: 0px; fill: rgb(0, 114, 178); fill-opacity: 1;"/><path class="point" transform="translate(356.13,180)" d="M3,0A3,3 0 1,1 0,-3A3,3 0 0,1 3,0Z" style="opacity: 1; stroke-width: 0px; fill: rgb(0, 114, 178); fill-opacity: 1;"/><path class="point" transform="translate(358.96,180)" d="M3,0A3,3 0 1,1 0,-3A3,3 0 0,1 3,0Z" style="opacity: 1; stroke-width: 0px; fill: rgb(0, 114, 178); fill-opacity: 1;"/><path class="point" transform="translate(359.2,180)" d="M3,0A3,3 0 1,1 0,-3A3,3 0 0,1 3,0Z" style="opacity: 1; stroke-width: 0px; fill: rgb(0, 114, 178); fill-opacity: 1;"/><path class="point" transform="translate(362.65,180)" d="M3,0A3,3 0 1,1 0,-3A3,3 0 0,1 3,0Z" style="opacity: 1; stroke-width: 0px; fill: rgb(0, 114, 178); fill-opacity: 1;"/><path class="point" transform="translate(366.54,180)" d="M3,0A3,3 0 1,1 0,-3A3,3 0 0,1 3,0Z" style="opacity: 1; stroke-width: 0px; fill: rgb(0, 114, 178); fill-opacity: 1;"/></g></g><g class="trace boxes" style="opacity: 1;"><path class="box" d="M238.98,229.8V210.2M231.99,229.8V210.2H244.31V229.8ZM231.99,220H142.4M244.31,220H251.86M142.4,224.9V215.1M251.86,224.9V215.1" style="vector-effect: none; stroke-width: 2px; stroke: rgb(213, 94, 0); stroke-opacity: 1; fill: rgb(213, 94, 0); fill-opacity: 0.5;"/><g class="points"><path class="point" transform="translate(254.23,220)" d="M3,0A3,3 0 1,1 0,-3A3,3 0 0,1 3,0Z" style="opacity: 1; stroke-width: 0px; fill: rgb(213, 94, 0); fill-opacity: 1;"/><path class="point" transform="translate(256.38,220)" d="M3,0A3,3 0 1,1 0,-3A3,3 0 0,1 3,0Z" style="opacity: 1; stroke-width: 0px; fill: rgb(213, 94, 0); fill-opacity: 1;"/></g></g><g class="trace boxes" style="opacity: 1;"><path class="box" d="M222.91,269.8V250.2M212.42,269.8V250.2H230.62V269.8ZM212.42,260H-4009M230.62,260H240.45M-4009,264.9V255.1M240.45,264.9V255.1" style="vector-effect: none; stroke-width: 2px; stroke: rgb(255, 34, 189); stroke-opacity: 1; fill: rgb(255, 34, 189); fill-opacity: 0.5;"/><g class="points"><path class="point" transform="translate(241.86,260)" d="M3,0A3,3 0 1,1 0,-3A3,3 0 0,1 3,0Z" style="opacity: 1; stroke-width: 0px; fill: rgb(255, 34, 189); fill-opacity: 1;"/><path class="point" transform="translate(242.46,260)" d="M3,0A3,3 0 1,1 0,-3A3,3 0 0,1 3,0Z" style="opacity: 1; stroke-width: 0px; fill: rgb(255, 34, 189); fill-opacity: 1;"/><path class="point" transform="translate(242.59,260)" d="M3,0A3,3 0 1,1 0,-3A3,3 0 0,1 3,0Z" style="opacity: 1; stroke-width: 0px; fill: rgb(255, 34, 189); fill-opacity: 1;"/><path class="point" transform="translate(242.92,260)" d="M3,0A3,3 0 1,1 0,-3A3,3 0 0,1 3,0Z" style="opacity: 1; stroke-width: 0px; fill: rgb(255, 34, 189); fill-opacity: 1;"/><path class="point" transform="translate(243.04,260)" d="M3,0A3,3 0 1,1 0,-3A3,3 0 0,1 3,0Z" style="opacity: 1; stroke-width: 0px; fill: rgb(255, 34, 189); fill-opacity: 1;"/><path class="point" transform="translate(243.14,260)" d="M3,0A3,3 0 1,1 0,-3A3,3 0 0,1 3,0Z" style="opacity: 1; stroke-width: 0px; fill: rgb(255, 34, 189); fill-opacity: 1;"/><path class="point" transform="translate(245.01,260)" d="M3,0A3,3 0 1,1 0,-3A3,3 0 0,1 3,0Z" style="opacity: 1; stroke-width: 0px; fill: rgb(255, 34, 189); fill-opacity: 1;"/><path class="point" transform="translate(245.01,260)" d="M3,0A3,3 0 1,1 0,-3A3,3 0 0,1 3,0Z" style="opacity: 1; stroke-width: 0px; fill: rgb(255, 34, 189); fill-opacity: 1;"/><path class="point" transform="translate(246.49,260)" d="M3,0A3,3 0 1,1 0,-3A3,3 0 0,1 3,0Z" style="opacity: 1; stroke-width: 0px; fill: rgb(255, 34, 189); fill-opacity: 1;"/><path class="point" transform="translate(246.52,260)" d="M3,0A3,3 0 1,1 0,-3A3,3 0 0,1 3,0Z" style="opacity: 1; stroke-width: 0px; fill: rgb(255, 34, 189); fill-opacity: 1;"/><path class="point" transform="translate(246.89,260)" d="M3,0A3,3 0 1,1 0,-3A3,3 0 0,1 3,0Z" style="opacity: 1; stroke-width: 0px; fill: rgb(255, 34, 189); fill-opacity: 1;"/><path class="point" transform="translate(247.37,260)" d="M3,0A3,3 0 1,1 0,-3A3,3 0 0,1 3,0Z" style="opacity: 1; stroke-width: 0px; fill: rgb(255, 34, 189); fill-opacity: 1;"/><path class="point" transform="translate(247.54,260)" d="M3,0A3,3 0 1,1 0,-3A3,3 0 0,1 3,0Z" style="opacity: 1; stroke-width: 0px; fill: rgb(255, 34, 189); fill-opacity: 1;"/><path class="point" transform="translate(251.94,260)" d="M3,0A3,3 0 1,1 0,-3A3,3 0 0,1 3,0Z" style="opacity: 1; stroke-width: 0px; fill: rgb(255, 34, 189); fill-opacity: 1;"/><path class="point" transform="translate(254.14,260)" d="M3,0A3,3 0 1,1 0,-3A3,3 0 0,1 3,0Z" style="opacity: 1; stroke-width: 0px; fill: rgb(255, 34, 189); fill-opacity: 1;"/><path class="point" transform="translate(254.52,260)" d="M3,0A3,3 0 1,1 0,-3A3,3 0 0,1 3,0Z" style="opacity: 1; stroke-width: 0px; fill: rgb(255, 34, 189); fill-opacity: 1;"/><path class="point" transform="translate(259.53,260)" d="M3,0A3,3 0 1,1 0,-3A3,3 0 0,1 3,0Z" style="opacity: 1; stroke-width: 0px; fill: rgb(255, 34, 189); fill-opacity: 1;"/><path class="point" transform="translate(259.88,260)" d="M3,0A3,3 0 1,1 0,-3A3,3 0 0,1 3,0Z" style="opacity: 1; stroke-width: 0px; fill: rgb(255, 34, 189); fill-opacity: 1;"/><path class="point" transform="translate(260.92,260)" d="M3,0A3,3 0 1,1 0,-3A3,3 0 0,1 3,0Z" style="opacity: 1; stroke-width: 0px; fill: rgb(255, 34, 189); fill-opacity: 1;"/><path class="point" transform="translate(262.04,260)" d="M3,0A3,3 0 1,1 0,-3A3,3 0 0,1 3,0Z" style="opacity: 1; stroke-width: 0px; fill: rgb(255, 34, 189); fill-opacity: 1;"/><path class="point" transform="translate(263.25,260)" d="M3,0A3,3 0 1,1 0,-3A3,3 0 0,1 3,0Z" style="opacity: 1; stroke-width: 0px; fill: rgb(255, 34, 189); fill-opacity: 1;"/><path class="point" transform="translate(280.31,260)" d="M3,0A3,3 0 1,1 0,-3A3,3 0 0,1 3,0Z" style="opacity: 1; stroke-width: 0px; fill: rgb(255, 34, 189); fill-opacity: 1;"/></g></g><g class="trace boxes" style="opacity: 1;"><path class="box" d="M239.98,309.8V290.2M230.18,309.8V290.2H260.05V309.8ZM230.18,300H133.52M260.05,300H269.98M133.52,304.9V295.1M269.98,304.9V295.1" style="vector-effect: none; stroke-width: 2px; stroke: rgb(34, 212, 63); stroke-opacity: 1; fill: rgb(34, 212, 63); fill-opacity: 0.5;"/><g class="points"><path class="point" transform="translate(275.7,300)" d="M3,0A3,3 0 1,1 0,-3A3,3 0 0,1 3,0Z" style="opacity: 1; stroke-width: 0px; fill: rgb(34, 212, 63); fill-opacity: 1;"/><path class="point" transform="translate(276.2,300)" d="M3,0A3,3 0 1,1 0,-3A3,3 0 0,1 3,0Z" style="opacity: 1; stroke-width: 0px; fill: rgb(34, 212, 63); fill-opacity: 1;"/><path class="point" transform="translate(277.9,300)" d="M3,0A3,3 0 1,1 0,-3A3,3 0 0,1 3,0Z" style="opacity: 1; stroke-width: 0px; fill: rgb(34, 212, 63); fill-opacity: 1;"/><path class="point" transform="translate(282.59,300)" d="M3,0A3,3 0 1,1 0,-3A3,3 0 0,1 3,0Z" style="opacity: 1; stroke-width: 0px; fill: rgb(34, 212, 63); fill-opacity: 1;"/><path class="point" transform="translate(287.39,300)" d="M3,0A3,3 0 1,1 0,-3A3,3 0 0,1 3,0Z" style="opacity: 1; stroke-width: 0px; fill: rgb(34, 212, 63); fill-opacity: 1;"/><path class="point" transform="translate(293.15,300)" d="M3,0A3,3 0 1,1 0,-3A3,3 0 0,1 3,0Z" style="opacity: 1; stroke-width: 0px; fill: rgb(34, 212, 63); fill-opacity: 1;"/><path class="point" transform="translate(317.7,300)" d="M3,0A3,3 0 1,1 0,-3A3,3 0 0,1 3,0Z" style="opacity: 1; stroke-width: 0px; fill: rgb(34, 212, 63); fill-opacity: 1;"/><path class="point" transform="translate(344.17,300)" d="M3,0A3,3 0 1,1 0,-3A3,3 0 0,1 3,0Z" style="opacity: 1; stroke-width: 0px; fill: rgb(34, 212, 63); fill-opacity: 1;"/><path class="point" transform="translate(344.4,300)" d="M3,0A3,3 0 1,1 0,-3A3,3 0 0,1 3,0Z" style="opacity: 1; stroke-width: 0px; fill: rgb(34, 212, 63); fill-opacity: 1;"/><path class="point" transform="translate(347.45,300)" d="M3,0A3,3 0 1,1 0,-3A3,3 0 0,1 3,0Z" style="opacity: 1; stroke-width: 0px; fill: rgb(34, 212, 63); fill-opacity: 1;"/><path class="point" transform="translate(354.98,300)" d="M3,0A3,3 0 1,1 0,-3A3,3 0 0,1 3,0Z" style="opacity: 1; stroke-width: 0px; fill: rgb(34, 212, 63); fill-opacity: 1;"/><path class="point" transform="translate(364.55,300)" d="M3,0A3,3 0 1,1 0,-3A3,3 0 0,1 3,0Z" style="opacity: 1; stroke-width: 0px; fill: rgb(34, 212, 63); fill-opacity: 1;"/></g></g><g class="trace boxes" style="opacity: 1;"><path class="box" d="M209.14,349.8V330.2M199.81,349.8V330.2H214.67V349.8ZM199.81,340H195.91M214.67,340H214.79M195.91,344.9V335.1M214.79,344.9V335.1" style="vector-effect: none; stroke-width: 2px; stroke: rgb(153, 153, 153); stroke-opacity: 1; fill: rgb(153, 153, 153); fill-opacity: 0.5;"/><g class="points"/></g></g></g></g><g class="zerolinelayer-above"/><path class="xlines-above crisp" d="M0,0" style="fill: none;"/><path class="ylines-above crisp" d="M0,0" style="fill: none;"/><g class="overlines-above"/><g class="xaxislayer-above"><g class="xtick"><text text-anchor="middle" x="0" y="433" transform="translate(183.98,0)" style="font-family: 'Open Sans', verdana, arial, sans-serif; font-size: 12px; fill: rgb(42, 63, 95); fill-opacity: 1; white-space: pre;">1μ</text></g><g class="xtick"><text text-anchor="middle" x="0" y="433" style="font-family: 'Open Sans', verdana, arial, sans-serif; font-size: 12px; fill: rgb(42, 63, 95); fill-opacity: 1; white-space: pre;" transform="translate(283.28,0)">0.001</text></g><g class="xtick"><text text-anchor="middle" x="0" y="433" style="font-family: 'Open Sans', verdana, arial, sans-serif; font-size: 12px; fill: rgb(42, 63, 95); fill-opacity: 1; white-space: pre;" transform="translate(382.59,0)">1</text></g><g class="xtick"><text text-anchor="middle" x="0" y="433" style="font-family: 'Open Sans', verdana, arial, sans-serif; font-size: 12px; fill: rgb(42, 63, 95); fill-opacity: 1; white-space: pre;" transform="translate(481.9,0)">1000</text></g></g><g class="yaxislayer-above"><g class="ytick"><text text-anchor="end" x="124" y="4.199999999999999" transform="translate(0,400)" style="font-family: 'Open Sans', verdana, arial, sans-serif; font-size: 12px; fill: rgb(42, 63, 95); fill-opacity: 1; white-space: pre;">Construction</text></g><g class="ytick"><text text-anchor="end" x="124" y="4.199999999999999" transform="translate(0,360)" style="font-family: 'Open Sans', verdana, arial, sans-serif; font-size: 12px; fill: rgb(42, 63, 95); fill-opacity: 1; white-space: pre;">MetalAlloy</text></g><g class="ytick"><text text-anchor="end" x="124" y="4.199999999999999" transform="translate(0,320)" style="font-family: 'Open Sans', verdana, arial, sans-serif; font-size: 12px; fill: rgb(42, 63, 95); fill-opacity: 1; white-space: pre;">AgriForeAnim</text></g><g class="ytick"><text text-anchor="end" x="124" y="4.199999999999999" transform="translate(0,280)" style="font-family: 'Open Sans', verdana, arial, sans-serif; font-size: 12px; fill: rgb(42, 63, 95); fill-opacity: 1; white-space: pre;">PlastRub</text></g><g class="ytick"><text text-anchor="end" x="124" y="4.199999999999999" transform="translate(0,240)" style="font-family: 'Open Sans', verdana, arial, sans-serif; font-size: 12px; fill: rgb(42, 63, 95); fill-opacity: 1; white-space: pre;">MachElecTrans</text></g><g class="ytick"><text text-anchor="end" x="124" y="4.199999999999999" transform="translate(0,200)" style="font-family: 'Open Sans', verdana, arial, sans-serif; font-size: 12px; fill: rgb(42, 63, 95); fill-opacity: 1; white-space: pre;">GlasNonMetal</text></g><g class="ytick"><text text-anchor="end" x="124" y="4.199999999999999" transform="translate(0,160)" style="font-family: 'Open Sans', verdana, arial, sans-serif; font-size: 12px; fill: rgb(42, 63, 95); fill-opacity: 1; white-space: pre;">OreMinFuel</text></g><g class="ytick"><text text-anchor="end" x="124" y="4.199999999999999" transform="translate(0,120)" style="font-family: 'Open Sans', verdana, arial, sans-serif; font-size: 12px; fill: rgb(42, 63, 95); fill-opacity: 1; white-space: pre;">Chemical</text></g><g class="ytick"><text text-anchor="end" x="124" y="4.199999999999999" transform="translate(0,80)" style="font-family: 'Open Sans', verdana, arial, sans-serif; font-size: 12px; fill: rgb(42, 63, 95); fill-opacity: 1; white-space: pre;">ProcBio</text></g></g><g class="overaxes-above"/></g></g><g class="polarlayer"/><g class="smithlayer"/><g class="ternarylayer"/><g class="geolayer"/><g class="funnelarealayer"/><g class="pielayer"/><g class="iciclelayer"/><g class="treemaplayer"/><g class="sunburstlayer"/><g class="glimages"/><defs id="topdefs-d09e61"><g class="clips"/><clipPath id="legendd09e61"><rect width="133" height="200" x="0" y="0"/></clipPath></defs><g class="layer-above"><g class="imagelayer"/><g class="shapelayer"/></g><g class="infolayer"><g class="legend" pointer-events="all" transform="translate(555.44,60)"><rect class="bg" shape-rendering="crispEdges" style="stroke: rgb(68, 68, 68); stroke-opacity: 1; fill: rgb(255, 255, 255); fill-opacity: 1; stroke-width: 0px;" width="133" height="200" x="0" y="0"/><g class="scrollbox" transform="" clip-path="url(#legendd09e61)"><text class="legendtitletext" text-anchor="start" x="2" y="18.2" style="font-family: 'Open Sans', verdana, arial, sans-serif; font-size: 14px; fill: rgb(42, 63, 95); fill-opacity: 1; white-space: pre;">Category</text><g class="groups" transform=""><g class="traces" transform="translate(0,32.7)" style="opacity: 1;"><text class="legendtext" text-anchor="start" x="40" y="4.680000000000001" style="font-family: 'Open Sans', verdana, arial, sans-serif; font-size: 12px; fill: rgb(42, 63, 95); fill-opacity: 1; white-space: pre;">ProcBio</text><g class="layers" style="opacity: 1;"><g class="legendfill"/><g class="legendlines"/><g class="legendsymbols"><g class="legendpoints"><path class="legendbox" d="M6,6H-6V-6H6Z" transform="translate(20,0)" style="stroke-width: 2px; fill: rgb(214, 99, 236); fill-opacity: 0.5; stroke: rgb(214, 99, 236); stroke-opacity: 1;"/></g></g></g><rect class="legendtoggle" x="0" y="-9.5" width="127.28125" height="19" style="fill: rgb(0, 0, 0); fill-opacity: 0;"/></g></g><g class="groups" transform=""><g class="traces" transform="translate(0,51.7)" style="opacity: 1;"><text class="legendtext" text-anchor="start" x="40" y="4.680000000000001" style="font-family: 'Open Sans', verdana, arial, sans-serif; font-size: 12px; fill: rgb(42, 63, 95); fill-opacity: 1; white-space: pre;">Chemical</text><g class="layers" style="opacity: 1;"><g class="legendfill"/><g class="legendlines"/><g class="legendsymbols"><g class="legendpoints"><path class="legendbox" d="M6,6H-6V-6H6Z" transform="translate(20,0)" style="stroke-width: 2px; fill: rgb(87, 180, 36); fill-opacity: 0.5; stroke: rgb(87, 180, 36); stroke-opacity: 1;"/></g></g></g><rect class="legendtoggle" x="0" y="-9.5" width="127.28125" height="19" style="fill: rgb(0, 0, 0); fill-opacity: 0;"/></g></g><g class="groups" transform=""><g class="traces" transform="translate(0,70.7)" style="opacity: 1;"><text class="legendtext" text-anchor="start" x="40" y="4.680000000000001" style="font-family: 'Open Sans', verdana, arial, sans-serif; font-size: 12px; fill: rgb(42, 63, 95); fill-opacity: 1; white-space: pre;">OreMinFuel</text><g class="layers" style="opacity: 1;"><g class="legendfill"/><g class="legendlines"/><g class="legendsymbols"><g class="legendpoints"><path class="legendbox" d="M6,6H-6V-6H6Z" transform="translate(20,0)" style="stroke-width: 2px; fill: rgb(86, 180, 233); fill-opacity: 0.5; stroke: rgb(86, 180, 233); stroke-opacity: 1;"/></g></g></g><rect class="legendtoggle" x="0" y="-9.5" width="127.28125" height="19" style="fill: rgb(0, 0, 0); fill-opacity: 0;"/></g></g><g class="groups" transform=""><g class="traces" transform="translate(0,89.7)" style="opacity: 1;"><text class="legendtext" text-anchor="start" x="40" y="4.680000000000001" style="font-family: 'Open Sans', verdana, arial, sans-serif; font-size: 12px; fill: rgb(42, 63, 95); fill-opacity: 1; white-space: pre;">GlasNonMetal</text><g class="layers" style="opacity: 1;"><g class="legendfill"/><g class="legendlines"/><g class="legendsymbols"><g class="legendpoints"><path class="legendbox" d="M6,6H-6V-6H6Z" transform="translate(20,0)" style="stroke-width: 2px; fill: rgb(240, 179, 66); fill-opacity: 0.5; stroke: rgb(240, 179, 66); stroke-opacity: 1;"/></g></g></g><rect class="legendtoggle" x="0" y="-9.5" width="127.28125" height="19" style="fill: rgb(0, 0, 0); fill-opacity: 0;"/></g></g><g class="groups" transform=""><g class="traces" transform="translate(0,108.7)" style="opacity: 1;"><text class="legendtext" text-anchor="start" x="40" y="4.680000000000001" style="font-family: 'Open Sans', verdana, arial, sans-serif; font-size: 12px; fill: rgb(42, 63, 95); fill-opacity: 1; white-space: pre;">MachElecTrans</text><g class="layers" style="opacity: 1;"><g class="legendfill"/><g class="legendlines"/><g class="legendsymbols"><g class="legendpoints"><path class="legendbox" d="M6,6H-6V-6H6Z" transform="translate(20,0)" style="stroke-width: 2px; fill: rgb(0, 114, 178); fill-opacity: 0.5; stroke: rgb(0, 114, 178); stroke-opacity: 1;"/></g></g></g><rect class="legendtoggle" x="0" y="-9.5" width="127.28125" height="19" style="fill: rgb(0, 0, 0); fill-opacity: 0;"/></g></g><g class="groups" transform=""><g class="traces" transform="translate(0,127.7)" style="opacity: 1;"><text class="legendtext" text-anchor="start" x="40" y="4.680000000000001" style="font-family: 'Open Sans', verdana, arial, sans-serif; font-size: 12px; fill: rgb(42, 63, 95); fill-opacity: 1; white-space: pre;">PlastRub</text><g class="layers" style="opacity: 1;"><g class="legendfill"/><g class="legendlines"/><g class="legendsymbols"><g class="legendpoints"><path class="legendbox" d="M6,6H-6V-6H6Z" transform="translate(20,0)" style="stroke-width: 2px; fill: rgb(213, 94, 0); fill-opacity: 0.5; stroke: rgb(213, 94, 0); stroke-opacity: 1;"/></g></g></g><rect class="legendtoggle" x="0" y="-9.5" width="127.28125" height="19" style="fill: rgb(0, 0, 0); fill-opacity: 0;"/></g></g><g class="groups" transform=""><g class="traces" transform="translate(0,146.7)" style="opacity: 1;"><text class="legendtext" text-anchor="start" x="40" y="4.680000000000001" style="font-family: 'Open Sans', verdana, arial, sans-serif; font-size: 12px; fill: rgb(42, 63, 95); fill-opacity: 1; white-space: pre;">AgriForeAnim</text><g class="layers" style="opacity: 1;"><g class="legendfill"/><g class="legendlines"/><g class="legendsymbols"><g class="legendpoints"><path class="legendbox" d="M6,6H-6V-6H6Z" transform="translate(20,0)" style="stroke-width: 2px; fill: rgb(255, 34, 189); fill-opacity: 0.5; stroke: rgb(255, 34, 189); stroke-opacity: 1;"/></g></g></g><rect class="legendtoggle" x="0" y="-9.5" width="127.28125" height="19" style="fill: rgb(0, 0, 0); fill-opacity: 0;"/></g></g><g class="groups" transform=""><g class="traces" transform="translate(0,165.7)" style="opacity: 1;"><text class="legendtext" text-anchor="start" x="40" y="4.680000000000001" style="font-family: 'Open Sans', verdana, arial, sans-serif; font-size: 12px; fill: rgb(42, 63, 95); fill-opacity: 1; white-space: pre;">MetalAlloy</text><g class="layers" style="opacity: 1;"><g class="legendfill"/><g class="legendlines"/><g class="legendsymbols"><g class="legendpoints"><path class="legendbox" d="M6,6H-6V-6H6Z" transform="translate(20,0)" style="stroke-width: 2px; fill: rgb(34, 212, 63); fill-opacity: 0.5; stroke: rgb(34, 212, 63); stroke-opacity: 1;"/></g></g></g><rect class="legendtoggle" x="0" y="-9.5" width="127.28125" height="19" style="fill: rgb(0, 0, 0); fill-opacity: 0;"/></g></g><g class="groups" transform=""><g class="traces" transform="translate(0,184.7)" style="opacity: 1;"><text class="legendtext" text-anchor="start" x="40" y="4.680000000000001" style="font-family: 'Open Sans', verdana, arial, sans-serif; font-size: 12px; fill: rgb(42, 63, 95); fill-opacity: 1; white-space: pre;">Construction</text><g class="layers" style="opacity: 1;"><g class="legendfill"/><g class="legendlines"/><g class="legendsymbols"><g class="legendpoints"><path class="legendbox" d="M6,6H-6V-6H6Z" transform="translate(20,0)" style="stroke-width: 2px; fill: rgb(153, 153, 153); fill-opacity: 0.5; stroke: rgb(153, 153, 153); stroke-opacity: 1;"/></g></g></g><rect class="legendtoggle" x="0" y="-9.5" width="127.28125" height="19" style="fill: rgb(0, 0, 0); fill-opacity: 0;"/></g></g></g><rect class="scrollbar" rx="20" ry="3" width="0" height="0" style="fill: rgb(128, 139, 164); fill-opacity: 1;" x="0" y="0"/></g><g class="g-gtitle"/><g class="g-xtitle"><text class="xtitle" x="336" y="460.3" text-anchor="middle" style="opacity: 1; font-family: 'Open Sans', verdana, arial, sans-serif; font-size: 14px; fill: rgb(42, 63, 95); fill-opacity: 1; white-space: pre;">Lithium</text></g><g class="g-ytitle"><text class="ytitle" transform="rotate(-90,17.318749999999994,240)" x="17.318749999999994" y="240" text-anchor="middle" style="opacity: 1; font-family: 'Open Sans', verdana, arial, sans-serif; font-size: 14px; fill: rgb(42, 63, 95); fill-opacity: 1; white-space: pre;">Category</text></g></g></svg>