<?xml version="1.0" encoding="utf-8" standalone="no"?>
<!DOCTYPE svg PUBLIC "-//W3C//DTD SVG 1.1//EN"
  "http://www.w3.org/Graphics/SVG/1.1/DTD/svg11.dtd">
<svg xmlns:xlink="http://www.w3.org/1999/xlink" width="695.646841pt" height="404.121094pt" viewBox="0 0 695.646841 404.121094" xmlns="http://www.w3.org/2000/svg" version="1.1">
 <metadata>
  <rdf:RDF xmlns:dc="http://purl.org/dc/elements/1.1/" xmlns:cc="http://creativecommons.org/ns#" xmlns:rdf="http://www.w3.org/1999/02/22-rdf-syntax-ns#">
   <cc:Work>
    <dc:type rdf:resource="http://purl.org/dc/dcmitype/StillImage"/>
    <dc:date>2025-10-20T19:08:59.679972</dc:date>
    <dc:format>image/svg+xml</dc:format>
    <dc:creator>
     <cc:Agent>
      <dc:title>Matplotlib v3.10.5, https://matplotlib.org/</dc:title>
     </cc:Agent>
    </dc:creator>
   </cc:Work>
  </rdf:RDF>
 </metadata>
 <defs>
  <style type="text/css">*{stroke-linejoin: round; stroke-linecap: butt}</style>
 </defs>
 <g id="figure_1">
  <g id="patch_1">
   <path d="M 0 404.121094 
L 695.646841 404.121094 
L 695.646841 0 
L 0 0 
z
" style="fill: #ffffff"/>
  </g>
  <g id="axes_1">
   <g id="patch_2">
    <path d="M 133.696953 343.664531 
L 678.144087 343.664531 
L 678.144087 7.2 
L 133.696953 7.2 
z
" style="fill: #ffffff"/>
   </g>
   <g id="matplotlib.axis_1">
    <g id="xtick_1">
     <g id="line2d_1">
      <path d="M 204.227303 343.664531 
L 204.227303 7.2 
" clip-path="url(#p0eade377bb)" style="fill: none; stroke: #cccccc; stroke-width: 1.5; stroke-linecap: round"/>
     </g>
     <g id="text_1">
      <!-- $\mathdefault{10^{1}}$ -->
      <g style="fill: #262626" transform="translate(191.274803 373.180156) scale(0.165 -0.165)">
       <defs>
        <path id="ArialMT-31" d="M 2384 0 
L 1822 0 
L 1822 3584 
Q 1619 3391 1289 3197 
Q 959 3003 697 2906 
L 697 3450 
Q 1169 3672 1522 3987 
Q 1875 4303 2022 4600 
L 2384 4600 
L 2384 0 
z
" transform="scale(0.015625)"/>
        <path id="ArialMT-30" d="M 266 2259 
Q 266 3072 433 3567 
Q 600 4063 929 4331 
Q 1259 4600 1759 4600 
Q 2128 4600 2406 4451 
Q 2684 4303 2865 4023 
Q 3047 3744 3150 3342 
Q 3253 2941 3253 2259 
Q 3253 1453 3087 958 
Q 2922 463 2592 192 
Q 2263 -78 1759 -78 
Q 1097 -78 719 397 
Q 266 969 266 2259 
z
M 844 2259 
Q 844 1131 1108 757 
Q 1372 384 1759 384 
Q 2147 384 2411 759 
Q 2675 1134 2675 2259 
Q 2675 3391 2411 3762 
Q 2147 4134 1753 4134 
Q 1366 4134 1134 3806 
Q 844 3388 844 2259 
z
" transform="scale(0.015625)"/>
       </defs>
       <use xlink:href="#ArialMT-31" transform="translate(0 0.99375)"/>
       <use xlink:href="#ArialMT-30" transform="translate(55.615234 0.99375)"/>
       <use xlink:href="#ArialMT-31" transform="translate(112.972813 70.6875) scale(0.7)"/>
      </g>
     </g>
    </g>
    <g id="xtick_2">
     <g id="line2d_2">
      <path d="M 322.044063 343.664531 
L 322.044063 7.2 
" clip-path="url(#p0eade377bb)" style="fill: none; stroke: #cccccc; stroke-width: 1.5; stroke-linecap: round"/>
     </g>
     <g id="text_2">
      <!-- $\mathdefault{10^{3}}$ -->
      <g style="fill: #262626" transform="translate(309.091563 373.180156) scale(0.165 -0.165)">
       <defs>
        <path id="ArialMT-33" d="M 269 1209 
L 831 1284 
Q 928 806 1161 595 
Q 1394 384 1728 384 
Q 2125 384 2398 659 
Q 2672 934 2672 1341 
Q 2672 1728 2419 1979 
Q 2166 2231 1775 2231 
Q 1616 2231 1378 2169 
L 1441 2663 
Q 1497 2656 1531 2656 
Q 1891 2656 2178 2843 
Q 2466 3031 2466 3422 
Q 2466 3731 2256 3934 
Q 2047 4138 1716 4138 
Q 1388 4138 1169 3931 
Q 950 3725 888 3313 
L 325 3413 
Q 428 3978 793 4289 
Q 1159 4600 1703 4600 
Q 2078 4600 2393 4439 
Q 2709 4278 2876 4000 
Q 3044 3722 3044 3409 
Q 3044 3113 2884 2869 
Q 2725 2625 2413 2481 
Q 2819 2388 3044 2092 
Q 3269 1797 3269 1353 
Q 3269 753 2831 336 
Q 2394 -81 1725 -81 
Q 1122 -81 723 278 
Q 325 638 269 1209 
z
" transform="scale(0.015625)"/>
       </defs>
       <use xlink:href="#ArialMT-31" transform="translate(0 0.99375)"/>
       <use xlink:href="#ArialMT-30" transform="translate(55.615234 0.99375)"/>
       <use xlink:href="#ArialMT-33" transform="translate(112.972813 70.6875) scale(0.7)"/>
      </g>
     </g>
    </g>
    <g id="xtick_3">
     <g id="line2d_3">
      <path d="M 439.860822 343.664531 
L 439.860822 7.2 
" clip-path="url(#p0eade377bb)" style="fill: none; stroke: #cccccc; stroke-width: 1.5; stroke-linecap: round"/>
     </g>
     <g id="text_3">
      <!-- $\mathdefault{10^{5}}$ -->
      <g style="fill: #262626" transform="translate(426.908322 373.015156) scale(0.165 -0.165)">
       <defs>
        <path id="ArialMT-35" d="M 266 1200 
L 856 1250 
Q 922 819 1161 601 
Q 1400 384 1738 384 
Q 2144 384 2425 690 
Q 2706 997 2706 1503 
Q 2706 1984 2436 2262 
Q 2166 2541 1728 2541 
Q 1456 2541 1237 2417 
Q 1019 2294 894 2097 
L 366 2166 
L 809 4519 
L 3088 4519 
L 3088 3981 
L 1259 3981 
L 1013 2750 
Q 1425 3038 1878 3038 
Q 2478 3038 2890 2622 
Q 3303 2206 3303 1553 
Q 3303 931 2941 478 
Q 2500 -78 1738 -78 
Q 1113 -78 717 272 
Q 322 622 266 1200 
z
" transform="scale(0.015625)"/>
       </defs>
       <use xlink:href="#ArialMT-31" transform="translate(0 0.879688)"/>
       <use xlink:href="#ArialMT-30" transform="translate(55.615234 0.879688)"/>
       <use xlink:href="#ArialMT-35" transform="translate(112.972813 70.573438) scale(0.7)"/>
      </g>
     </g>
    </g>
    <g id="xtick_4">
     <g id="line2d_4">
      <path d="M 557.677581 343.664531 
L 557.677581 7.2 
" clip-path="url(#p0eade377bb)" style="fill: none; stroke: #cccccc; stroke-width: 1.5; stroke-linecap: round"/>
     </g>
     <g id="text_4">
      <!-- $\mathdefault{10^{7}}$ -->
      <g style="fill: #262626" transform="translate(544.725081 373.015156) scale(0.165 -0.165)">
       <defs>
        <path id="ArialMT-37" d="M 303 3981 
L 303 4522 
L 3269 4522 
L 3269 4084 
Q 2831 3619 2401 2847 
Q 1972 2075 1738 1259 
Q 1569 684 1522 0 
L 944 0 
Q 953 541 1156 1306 
Q 1359 2072 1739 2783 
Q 2119 3494 2547 3981 
L 303 3981 
z
" transform="scale(0.015625)"/>
       </defs>
       <use xlink:href="#ArialMT-31" transform="translate(0 0.846875)"/>
       <use xlink:href="#ArialMT-30" transform="translate(55.615234 0.846875)"/>
       <use xlink:href="#ArialMT-37" transform="translate(112.972813 70.540625) scale(0.7)"/>
      </g>
     </g>
    </g>
    <g id="xtick_5">
     <g id="line2d_5">
      <path d="M 675.494341 343.664531 
L 675.494341 7.2 
" clip-path="url(#p0eade377bb)" style="fill: none; stroke: #cccccc; stroke-width: 1.5; stroke-linecap: round"/>
     </g>
     <g id="text_5">
      <!-- $\mathdefault{10^{9}}$ -->
      <g style="fill: #262626" transform="translate(662.541841 373.180156) scale(0.165 -0.165)">
       <defs>
        <path id="ArialMT-39" d="M 350 1059 
L 891 1109 
Q 959 728 1153 556 
Q 1347 384 1650 384 
Q 1909 384 2104 503 
Q 2300 622 2425 820 
Q 2550 1019 2634 1356 
Q 2719 1694 2719 2044 
Q 2719 2081 2716 2156 
Q 2547 1888 2255 1720 
Q 1963 1553 1622 1553 
Q 1053 1553 659 1965 
Q 266 2378 266 3053 
Q 266 3750 677 4175 
Q 1088 4600 1706 4600 
Q 2153 4600 2523 4359 
Q 2894 4119 3086 3673 
Q 3278 3228 3278 2384 
Q 3278 1506 3087 986 
Q 2897 466 2520 194 
Q 2144 -78 1638 -78 
Q 1100 -78 759 220 
Q 419 519 350 1059 
z
M 2653 3081 
Q 2653 3566 2395 3850 
Q 2138 4134 1775 4134 
Q 1400 4134 1122 3828 
Q 844 3522 844 3034 
Q 844 2597 1108 2323 
Q 1372 2050 1759 2050 
Q 2150 2050 2401 2323 
Q 2653 2597 2653 3081 
z
" transform="scale(0.015625)"/>
       </defs>
       <use xlink:href="#ArialMT-31" transform="translate(0 0.99375)"/>
       <use xlink:href="#ArialMT-30" transform="translate(55.615234 0.99375)"/>
       <use xlink:href="#ArialMT-39" transform="translate(112.972813 70.6875) scale(0.7)"/>
      </g>
     </g>
    </g>
    <g id="text_6">
     <!-- Water -->
     <g style="fill: #262626" transform="translate(382.256145 393.343594) scale(0.18 -0.18)">
      <defs>
       <path id="ArialMT-57" d="M 1294 0 
L 78 4581 
L 700 4581 
L 1397 1578 
Q 1509 1106 1591 641 
Q 1766 1375 1797 1488 
L 2669 4581 
L 3400 4581 
L 4056 2263 
Q 4303 1400 4413 641 
Q 4500 1075 4641 1638 
L 5359 4581 
L 5969 4581 
L 4713 0 
L 4128 0 
L 3163 3491 
Q 3041 3928 3019 4028 
Q 2947 3713 2884 3491 
L 1913 0 
L 1294 0 
z
" transform="scale(0.015625)"/>
       <path id="ArialMT-61" d="M 2588 409 
Q 2275 144 1986 34 
Q 1697 -75 1366 -75 
Q 819 -75 525 192 
Q 231 459 231 875 
Q 231 1119 342 1320 
Q 453 1522 633 1644 
Q 813 1766 1038 1828 
Q 1203 1872 1538 1913 
Q 2219 1994 2541 2106 
Q 2544 2222 2544 2253 
Q 2544 2597 2384 2738 
Q 2169 2928 1744 2928 
Q 1347 2928 1158 2789 
Q 969 2650 878 2297 
L 328 2372 
Q 403 2725 575 2942 
Q 747 3159 1072 3276 
Q 1397 3394 1825 3394 
Q 2250 3394 2515 3294 
Q 2781 3194 2906 3042 
Q 3031 2891 3081 2659 
Q 3109 2516 3109 2141 
L 3109 1391 
Q 3109 606 3145 398 
Q 3181 191 3288 0 
L 2700 0 
Q 2613 175 2588 409 
z
M 2541 1666 
Q 2234 1541 1622 1453 
Q 1275 1403 1131 1340 
Q 988 1278 909 1158 
Q 831 1038 831 891 
Q 831 666 1001 516 
Q 1172 366 1500 366 
Q 1825 366 2078 508 
Q 2331 650 2450 897 
Q 2541 1088 2541 1459 
L 2541 1666 
z
" transform="scale(0.015625)"/>
       <path id="ArialMT-74" d="M 1650 503 
L 1731 6 
Q 1494 -44 1306 -44 
Q 1000 -44 831 53 
Q 663 150 594 308 
Q 525 466 525 972 
L 525 2881 
L 113 2881 
L 113 3319 
L 525 3319 
L 525 4141 
L 1084 4478 
L 1084 3319 
L 1650 3319 
L 1650 2881 
L 1084 2881 
L 1084 941 
Q 1084 700 1114 631 
Q 1144 563 1211 522 
Q 1278 481 1403 481 
Q 1497 481 1650 503 
z
" transform="scale(0.015625)"/>
       <path id="ArialMT-65" d="M 2694 1069 
L 3275 997 
Q 3138 488 2766 206 
Q 2394 -75 1816 -75 
Q 1088 -75 661 373 
Q 234 822 234 1631 
Q 234 2469 665 2931 
Q 1097 3394 1784 3394 
Q 2450 3394 2872 2941 
Q 3294 2488 3294 1666 
Q 3294 1616 3291 1516 
L 816 1516 
Q 847 969 1125 678 
Q 1403 388 1819 388 
Q 2128 388 2347 550 
Q 2566 713 2694 1069 
z
M 847 1978 
L 2700 1978 
Q 2663 2397 2488 2606 
Q 2219 2931 1791 2931 
Q 1403 2931 1139 2672 
Q 875 2413 847 1978 
z
" transform="scale(0.015625)"/>
       <path id="ArialMT-72" d="M 416 0 
L 416 3319 
L 922 3319 
L 922 2816 
Q 1116 3169 1280 3281 
Q 1444 3394 1641 3394 
Q 1925 3394 2219 3213 
L 2025 2691 
Q 1819 2813 1613 2813 
Q 1428 2813 1281 2702 
Q 1134 2591 1072 2394 
Q 978 2094 978 1738 
L 978 0 
L 416 0 
z
" transform="scale(0.015625)"/>
      </defs>
      <use xlink:href="#ArialMT-57"/>
      <use xlink:href="#ArialMT-61" transform="translate(90.634766 0)"/>
      <use xlink:href="#ArialMT-74" transform="translate(146.25 0)"/>
      <use xlink:href="#ArialMT-65" transform="translate(174.033203 0)"/>
      <use xlink:href="#ArialMT-72" transform="translate(229.648438 0)"/>
     </g>
    </g>
   </g>
   <g id="matplotlib.axis_2">
    <g id="ytick_1">
     <g id="text_7">
      <!-- Chemical -->
      <g style="fill: #262626" transform="translate(52.428047 34.134229) scale(0.165 -0.165)">
       <defs>
        <path id="ArialMT-43" d="M 3763 1606 
L 4369 1453 
Q 4178 706 3683 314 
Q 3188 -78 2472 -78 
Q 1731 -78 1267 223 
Q 803 525 561 1097 
Q 319 1669 319 2325 
Q 319 3041 592 3573 
Q 866 4106 1370 4382 
Q 1875 4659 2481 4659 
Q 3169 4659 3637 4309 
Q 4106 3959 4291 3325 
L 3694 3184 
Q 3534 3684 3231 3912 
Q 2928 4141 2469 4141 
Q 1941 4141 1586 3887 
Q 1231 3634 1087 3207 
Q 944 2781 944 2328 
Q 944 1744 1114 1308 
Q 1284 872 1643 656 
Q 2003 441 2422 441 
Q 2931 441 3284 734 
Q 3638 1028 3763 1606 
z
" transform="scale(0.015625)"/>
        <path id="ArialMT-68" d="M 422 0 
L 422 4581 
L 984 4581 
L 984 2938 
Q 1378 3394 1978 3394 
Q 2347 3394 2619 3248 
Q 2891 3103 3008 2847 
Q 3125 2591 3125 2103 
L 3125 0 
L 2563 0 
L 2563 2103 
Q 2563 2525 2380 2717 
Q 2197 2909 1863 2909 
Q 1613 2909 1392 2779 
Q 1172 2650 1078 2428 
Q 984 2206 984 1816 
L 984 0 
L 422 0 
z
" transform="scale(0.015625)"/>
        <path id="ArialMT-6d" d="M 422 0 
L 422 3319 
L 925 3319 
L 925 2853 
Q 1081 3097 1340 3245 
Q 1600 3394 1931 3394 
Q 2300 3394 2536 3241 
Q 2772 3088 2869 2813 
Q 3263 3394 3894 3394 
Q 4388 3394 4653 3120 
Q 4919 2847 4919 2278 
L 4919 0 
L 4359 0 
L 4359 2091 
Q 4359 2428 4304 2576 
Q 4250 2725 4106 2815 
Q 3963 2906 3769 2906 
Q 3419 2906 3187 2673 
Q 2956 2441 2956 1928 
L 2956 0 
L 2394 0 
L 2394 2156 
Q 2394 2531 2256 2718 
Q 2119 2906 1806 2906 
Q 1569 2906 1367 2781 
Q 1166 2656 1075 2415 
Q 984 2175 984 1722 
L 984 0 
L 422 0 
z
" transform="scale(0.015625)"/>
        <path id="ArialMT-69" d="M 425 3934 
L 425 4581 
L 988 4581 
L 988 3934 
L 425 3934 
z
M 425 0 
L 425 3319 
L 988 3319 
L 988 0 
L 425 0 
z
" transform="scale(0.015625)"/>
        <path id="ArialMT-63" d="M 2588 1216 
L 3141 1144 
Q 3050 572 2676 248 
Q 2303 -75 1759 -75 
Q 1078 -75 664 370 
Q 250 816 250 1647 
Q 250 2184 428 2587 
Q 606 2991 970 3192 
Q 1334 3394 1763 3394 
Q 2303 3394 2647 3120 
Q 2991 2847 3088 2344 
L 2541 2259 
Q 2463 2594 2264 2762 
Q 2066 2931 1784 2931 
Q 1359 2931 1093 2626 
Q 828 2322 828 1663 
Q 828 994 1084 691 
Q 1341 388 1753 388 
Q 2084 388 2306 591 
Q 2528 794 2588 1216 
z
" transform="scale(0.015625)"/>
        <path id="ArialMT-6c" d="M 409 0 
L 409 4581 
L 972 4581 
L 972 0 
L 409 0 
z
" transform="scale(0.015625)"/>
       </defs>
       <use xlink:href="#ArialMT-43"/>
       <use xlink:href="#ArialMT-68" transform="translate(72.216797 0)"/>
       <use xlink:href="#ArialMT-65" transform="translate(127.832031 0)"/>
       <use xlink:href="#ArialMT-6d" transform="translate(183.447266 0)"/>
       <use xlink:href="#ArialMT-69" transform="translate(266.748047 0)"/>
       <use xlink:href="#ArialMT-63" transform="translate(288.964844 0)"/>
       <use xlink:href="#ArialMT-61" transform="translate(338.964844 0)"/>
       <use xlink:href="#ArialMT-6c" transform="translate(394.580078 0)"/>
      </g>
     </g>
    </g>
    <g id="ytick_2">
     <g id="text_8">
      <!-- MachElecTrans -->
      <g style="fill: #262626" transform="translate(7.2 76.192295) scale(0.165 -0.165)">
       <defs>
        <path id="ArialMT-4d" d="M 475 0 
L 475 4581 
L 1388 4581 
L 2472 1338 
Q 2622 884 2691 659 
Q 2769 909 2934 1394 
L 4031 4581 
L 4847 4581 
L 4847 0 
L 4263 0 
L 4263 3834 
L 2931 0 
L 2384 0 
L 1059 3900 
L 1059 0 
L 475 0 
z
" transform="scale(0.015625)"/>
        <path id="ArialMT-45" d="M 506 0 
L 506 4581 
L 3819 4581 
L 3819 4041 
L 1113 4041 
L 1113 2638 
L 3647 2638 
L 3647 2100 
L 1113 2100 
L 1113 541 
L 3925 541 
L 3925 0 
L 506 0 
z
" transform="scale(0.015625)"/>
        <path id="ArialMT-54" d="M 1659 0 
L 1659 4041 
L 150 4041 
L 150 4581 
L 3781 4581 
L 3781 4041 
L 2266 4041 
L 2266 0 
L 1659 0 
z
" transform="scale(0.015625)"/>
        <path id="ArialMT-6e" d="M 422 0 
L 422 3319 
L 928 3319 
L 928 2847 
Q 1294 3394 1984 3394 
Q 2284 3394 2536 3286 
Q 2788 3178 2913 3003 
Q 3038 2828 3088 2588 
Q 3119 2431 3119 2041 
L 3119 0 
L 2556 0 
L 2556 2019 
Q 2556 2363 2490 2533 
Q 2425 2703 2258 2804 
Q 2091 2906 1866 2906 
Q 1506 2906 1245 2678 
Q 984 2450 984 1813 
L 984 0 
L 422 0 
z
" transform="scale(0.015625)"/>
        <path id="ArialMT-73" d="M 197 991 
L 753 1078 
Q 800 744 1014 566 
Q 1228 388 1613 388 
Q 2000 388 2187 545 
Q 2375 703 2375 916 
Q 2375 1106 2209 1216 
Q 2094 1291 1634 1406 
Q 1016 1563 777 1677 
Q 538 1791 414 1992 
Q 291 2194 291 2438 
Q 291 2659 392 2848 
Q 494 3038 669 3163 
Q 800 3259 1026 3326 
Q 1253 3394 1513 3394 
Q 1903 3394 2198 3281 
Q 2494 3169 2634 2976 
Q 2775 2784 2828 2463 
L 2278 2388 
Q 2241 2644 2061 2787 
Q 1881 2931 1553 2931 
Q 1166 2931 1000 2803 
Q 834 2675 834 2503 
Q 834 2394 903 2306 
Q 972 2216 1119 2156 
Q 1203 2125 1616 2013 
Q 2213 1853 2448 1751 
Q 2684 1650 2818 1456 
Q 2953 1263 2953 975 
Q 2953 694 2789 445 
Q 2625 197 2315 61 
Q 2006 -75 1616 -75 
Q 969 -75 630 194 
Q 291 463 197 991 
z
" transform="scale(0.015625)"/>
       </defs>
       <use xlink:href="#ArialMT-4d"/>
       <use xlink:href="#ArialMT-61" transform="translate(83.300781 0)"/>
       <use xlink:href="#ArialMT-63" transform="translate(138.916016 0)"/>
       <use xlink:href="#ArialMT-68" transform="translate(188.916016 0)"/>
       <use xlink:href="#ArialMT-45" transform="translate(244.53125 0)"/>
       <use xlink:href="#ArialMT-6c" transform="translate(311.230469 0)"/>
       <use xlink:href="#ArialMT-65" transform="translate(333.447266 0)"/>
       <use xlink:href="#ArialMT-63" transform="translate(389.0625 0)"/>
       <use xlink:href="#ArialMT-54" transform="translate(439.0625 0)"/>
       <use xlink:href="#ArialMT-72" transform="translate(496.396484 0)"/>
       <use xlink:href="#ArialMT-61" transform="translate(529.697266 0)"/>
       <use xlink:href="#ArialMT-6e" transform="translate(585.3125 0)"/>
       <use xlink:href="#ArialMT-73" transform="translate(640.927734 0)"/>
      </g>
     </g>
    </g>
    <g id="ytick_3">
     <g id="text_9">
      <!-- OreMinFuel -->
      <g style="fill: #262626" transform="translate(35.012812 118.250361) scale(0.165 -0.165)">
       <defs>
        <path id="ArialMT-4f" d="M 309 2231 
Q 309 3372 921 4017 
Q 1534 4663 2503 4663 
Q 3138 4663 3647 4359 
Q 4156 4056 4423 3514 
Q 4691 2972 4691 2284 
Q 4691 1588 4409 1038 
Q 4128 488 3612 205 
Q 3097 -78 2500 -78 
Q 1853 -78 1343 234 
Q 834 547 571 1087 
Q 309 1628 309 2231 
z
M 934 2222 
Q 934 1394 1379 917 
Q 1825 441 2497 441 
Q 3181 441 3623 922 
Q 4066 1403 4066 2288 
Q 4066 2847 3877 3264 
Q 3688 3681 3323 3911 
Q 2959 4141 2506 4141 
Q 1863 4141 1398 3698 
Q 934 3256 934 2222 
z
" transform="scale(0.015625)"/>
        <path id="ArialMT-46" d="M 525 0 
L 525 4581 
L 3616 4581 
L 3616 4041 
L 1131 4041 
L 1131 2622 
L 3281 2622 
L 3281 2081 
L 1131 2081 
L 1131 0 
L 525 0 
z
" transform="scale(0.015625)"/>
        <path id="ArialMT-75" d="M 2597 0 
L 2597 488 
Q 2209 -75 1544 -75 
Q 1250 -75 995 37 
Q 741 150 617 320 
Q 494 491 444 738 
Q 409 903 409 1263 
L 409 3319 
L 972 3319 
L 972 1478 
Q 972 1038 1006 884 
Q 1059 663 1231 536 
Q 1403 409 1656 409 
Q 1909 409 2131 539 
Q 2353 669 2445 892 
Q 2538 1116 2538 1541 
L 2538 3319 
L 3100 3319 
L 3100 0 
L 2597 0 
z
" transform="scale(0.015625)"/>
       </defs>
       <use xlink:href="#ArialMT-4f"/>
       <use xlink:href="#ArialMT-72" transform="translate(77.783203 0)"/>
       <use xlink:href="#ArialMT-65" transform="translate(111.083984 0)"/>
       <use xlink:href="#ArialMT-4d" transform="translate(166.699219 0)"/>
       <use xlink:href="#ArialMT-69" transform="translate(250 0)"/>
       <use xlink:href="#ArialMT-6e" transform="translate(272.216797 0)"/>
       <use xlink:href="#ArialMT-46" transform="translate(327.832031 0)"/>
       <use xlink:href="#ArialMT-75" transform="translate(388.916016 0)"/>
       <use xlink:href="#ArialMT-65" transform="translate(444.53125 0)"/>
       <use xlink:href="#ArialMT-6c" transform="translate(500.146484 0)"/>
      </g>
     </g>
    </g>
    <g id="ytick_4">
     <g id="text_10">
      <!-- MetalAlloy -->
      <g style="fill: #262626" transform="translate(45.088125 160.308428) scale(0.165 -0.165)">
       <defs>
        <path id="ArialMT-41" d="M -9 0 
L 1750 4581 
L 2403 4581 
L 4278 0 
L 3588 0 
L 3053 1388 
L 1138 1388 
L 634 0 
L -9 0 
z
M 1313 1881 
L 2866 1881 
L 2388 3150 
Q 2169 3728 2063 4100 
Q 1975 3659 1816 3225 
L 1313 1881 
z
" transform="scale(0.015625)"/>
        <path id="ArialMT-6f" d="M 213 1659 
Q 213 2581 725 3025 
Q 1153 3394 1769 3394 
Q 2453 3394 2887 2945 
Q 3322 2497 3322 1706 
Q 3322 1066 3130 698 
Q 2938 331 2570 128 
Q 2203 -75 1769 -75 
Q 1072 -75 642 372 
Q 213 819 213 1659 
z
M 791 1659 
Q 791 1022 1069 705 
Q 1347 388 1769 388 
Q 2188 388 2466 706 
Q 2744 1025 2744 1678 
Q 2744 2294 2464 2611 
Q 2184 2928 1769 2928 
Q 1347 2928 1069 2612 
Q 791 2297 791 1659 
z
" transform="scale(0.015625)"/>
        <path id="ArialMT-79" d="M 397 -1278 
L 334 -750 
Q 519 -800 656 -800 
Q 844 -800 956 -737 
Q 1069 -675 1141 -563 
Q 1194 -478 1313 -144 
Q 1328 -97 1363 -6 
L 103 3319 
L 709 3319 
L 1400 1397 
Q 1534 1031 1641 628 
Q 1738 1016 1872 1384 
L 2581 3319 
L 3144 3319 
L 1881 -56 
Q 1678 -603 1566 -809 
Q 1416 -1088 1222 -1217 
Q 1028 -1347 759 -1347 
Q 597 -1347 397 -1278 
z
" transform="scale(0.015625)"/>
       </defs>
       <use xlink:href="#ArialMT-4d"/>
       <use xlink:href="#ArialMT-65" transform="translate(83.300781 0)"/>
       <use xlink:href="#ArialMT-74" transform="translate(138.916016 0)"/>
       <use xlink:href="#ArialMT-61" transform="translate(166.699219 0)"/>
       <use xlink:href="#ArialMT-6c" transform="translate(222.314453 0)"/>
       <use xlink:href="#ArialMT-41" transform="translate(244.53125 0)"/>
       <use xlink:href="#ArialMT-6c" transform="translate(311.230469 0)"/>
       <use xlink:href="#ArialMT-6c" transform="translate(333.447266 0)"/>
       <use xlink:href="#ArialMT-6f" transform="translate(355.664062 0)"/>
       <use xlink:href="#ArialMT-79" transform="translate(411.279297 0)"/>
      </g>
     </g>
    </g>
    <g id="ytick_5">
     <g id="text_11">
      <!-- AgriForeAnim -->
      <g style="fill: #262626" transform="translate(20.340703 202.366494) scale(0.165 -0.165)">
       <defs>
        <path id="ArialMT-67" d="M 319 -275 
L 866 -356 
Q 900 -609 1056 -725 
Q 1266 -881 1628 -881 
Q 2019 -881 2231 -725 
Q 2444 -569 2519 -288 
Q 2563 -116 2559 434 
Q 2191 0 1641 0 
Q 956 0 581 494 
Q 206 988 206 1678 
Q 206 2153 378 2554 
Q 550 2956 876 3175 
Q 1203 3394 1644 3394 
Q 2231 3394 2613 2919 
L 2613 3319 
L 3131 3319 
L 3131 450 
Q 3131 -325 2973 -648 
Q 2816 -972 2473 -1159 
Q 2131 -1347 1631 -1347 
Q 1038 -1347 672 -1080 
Q 306 -813 319 -275 
z
M 784 1719 
Q 784 1066 1043 766 
Q 1303 466 1694 466 
Q 2081 466 2343 764 
Q 2606 1063 2606 1700 
Q 2606 2309 2336 2618 
Q 2066 2928 1684 2928 
Q 1309 2928 1046 2623 
Q 784 2319 784 1719 
z
" transform="scale(0.015625)"/>
       </defs>
       <use xlink:href="#ArialMT-41"/>
       <use xlink:href="#ArialMT-67" transform="translate(66.699219 0)"/>
       <use xlink:href="#ArialMT-72" transform="translate(122.314453 0)"/>
       <use xlink:href="#ArialMT-69" transform="translate(155.615234 0)"/>
       <use xlink:href="#ArialMT-46" transform="translate(177.832031 0)"/>
       <use xlink:href="#ArialMT-6f" transform="translate(238.916016 0)"/>
       <use xlink:href="#ArialMT-72" transform="translate(294.53125 0)"/>
       <use xlink:href="#ArialMT-65" transform="translate(327.832031 0)"/>
       <use xlink:href="#ArialMT-41" transform="translate(383.447266 0)"/>
       <use xlink:href="#ArialMT-6e" transform="translate(450.146484 0)"/>
       <use xlink:href="#ArialMT-69" transform="translate(505.761719 0)"/>
       <use xlink:href="#ArialMT-6d" transform="translate(527.978516 0)"/>
      </g>
     </g>
    </g>
    <g id="ytick_6">
     <g id="text_12">
      <!-- ProcBio -->
      <g style="fill: #262626" transform="translate(63.42375 244.424561) scale(0.165 -0.165)">
       <defs>
        <path id="ArialMT-50" d="M 494 0 
L 494 4581 
L 2222 4581 
Q 2678 4581 2919 4538 
Q 3256 4481 3484 4323 
Q 3713 4166 3852 3881 
Q 3991 3597 3991 3256 
Q 3991 2672 3619 2267 
Q 3247 1863 2275 1863 
L 1100 1863 
L 1100 0 
L 494 0 
z
M 1100 2403 
L 2284 2403 
Q 2872 2403 3119 2622 
Q 3366 2841 3366 3238 
Q 3366 3525 3220 3729 
Q 3075 3934 2838 4000 
Q 2684 4041 2272 4041 
L 1100 4041 
L 1100 2403 
z
" transform="scale(0.015625)"/>
        <path id="ArialMT-42" d="M 469 0 
L 469 4581 
L 2188 4581 
Q 2713 4581 3030 4442 
Q 3347 4303 3526 4014 
Q 3706 3725 3706 3409 
Q 3706 3116 3547 2856 
Q 3388 2597 3066 2438 
Q 3481 2316 3704 2022 
Q 3928 1728 3928 1328 
Q 3928 1006 3792 729 
Q 3656 453 3456 303 
Q 3256 153 2954 76 
Q 2653 0 2216 0 
L 469 0 
z
M 1075 2656 
L 2066 2656 
Q 2469 2656 2644 2709 
Q 2875 2778 2992 2937 
Q 3109 3097 3109 3338 
Q 3109 3566 3000 3739 
Q 2891 3913 2687 3977 
Q 2484 4041 1991 4041 
L 1075 4041 
L 1075 2656 
z
M 1075 541 
L 2216 541 
Q 2509 541 2628 563 
Q 2838 600 2978 687 
Q 3119 775 3209 942 
Q 3300 1109 3300 1328 
Q 3300 1584 3169 1773 
Q 3038 1963 2805 2039 
Q 2572 2116 2134 2116 
L 1075 2116 
L 1075 541 
z
" transform="scale(0.015625)"/>
       </defs>
       <use xlink:href="#ArialMT-50"/>
       <use xlink:href="#ArialMT-72" transform="translate(66.699219 0)"/>
       <use xlink:href="#ArialMT-6f" transform="translate(100 0)"/>
       <use xlink:href="#ArialMT-63" transform="translate(155.615234 0)"/>
       <use xlink:href="#ArialMT-42" transform="translate(205.615234 0)"/>
       <use xlink:href="#ArialMT-69" transform="translate(272.314453 0)"/>
       <use xlink:href="#ArialMT-6f" transform="translate(294.53125 0)"/>
      </g>
     </g>
    </g>
    <g id="ytick_7">
     <g id="text_13">
      <!-- PlastRub -->
      <g style="fill: #262626" transform="translate(54.248203 286.482627) scale(0.165 -0.165)">
       <defs>
        <path id="ArialMT-52" d="M 503 0 
L 503 4581 
L 2534 4581 
Q 3147 4581 3465 4457 
Q 3784 4334 3975 4021 
Q 4166 3709 4166 3331 
Q 4166 2844 3850 2509 
Q 3534 2175 2875 2084 
Q 3116 1969 3241 1856 
Q 3506 1613 3744 1247 
L 4541 0 
L 3778 0 
L 3172 953 
Q 2906 1366 2734 1584 
Q 2563 1803 2427 1890 
Q 2291 1978 2150 2013 
Q 2047 2034 1813 2034 
L 1109 2034 
L 1109 0 
L 503 0 
z
M 1109 2559 
L 2413 2559 
Q 2828 2559 3062 2645 
Q 3297 2731 3419 2920 
Q 3541 3109 3541 3331 
Q 3541 3656 3305 3865 
Q 3069 4075 2559 4075 
L 1109 4075 
L 1109 2559 
z
" transform="scale(0.015625)"/>
        <path id="ArialMT-62" d="M 941 0 
L 419 0 
L 419 4581 
L 981 4581 
L 981 2947 
Q 1338 3394 1891 3394 
Q 2197 3394 2470 3270 
Q 2744 3147 2920 2923 
Q 3097 2700 3197 2384 
Q 3297 2069 3297 1709 
Q 3297 856 2875 390 
Q 2453 -75 1863 -75 
Q 1275 -75 941 416 
L 941 0 
z
M 934 1684 
Q 934 1088 1097 822 
Q 1363 388 1816 388 
Q 2184 388 2453 708 
Q 2722 1028 2722 1663 
Q 2722 2313 2464 2622 
Q 2206 2931 1841 2931 
Q 1472 2931 1203 2611 
Q 934 2291 934 1684 
z
" transform="scale(0.015625)"/>
       </defs>
       <use xlink:href="#ArialMT-50"/>
       <use xlink:href="#ArialMT-6c" transform="translate(66.699219 0)"/>
       <use xlink:href="#ArialMT-61" transform="translate(88.916016 0)"/>
       <use xlink:href="#ArialMT-73" transform="translate(144.53125 0)"/>
       <use xlink:href="#ArialMT-74" transform="translate(194.53125 0)"/>
       <use xlink:href="#ArialMT-52" transform="translate(222.314453 0)"/>
       <use xlink:href="#ArialMT-75" transform="translate(294.53125 0)"/>
       <use xlink:href="#ArialMT-62" transform="translate(350.146484 0)"/>
      </g>
     </g>
    </g>
    <g id="ytick_8">
     <g id="text_14">
      <!-- GlasNonMetal -->
      <g style="fill: #262626" transform="translate(16.659141 328.540693) scale(0.165 -0.165)">
       <defs>
        <path id="ArialMT-47" d="M 2638 1797 
L 2638 2334 
L 4578 2338 
L 4578 638 
Q 4131 281 3656 101 
Q 3181 -78 2681 -78 
Q 2006 -78 1454 211 
Q 903 500 622 1047 
Q 341 1594 341 2269 
Q 341 2938 620 3517 
Q 900 4097 1425 4378 
Q 1950 4659 2634 4659 
Q 3131 4659 3532 4498 
Q 3934 4338 4162 4050 
Q 4391 3763 4509 3300 
L 3963 3150 
Q 3859 3500 3706 3700 
Q 3553 3900 3268 4020 
Q 2984 4141 2638 4141 
Q 2222 4141 1919 4014 
Q 1616 3888 1430 3681 
Q 1244 3475 1141 3228 
Q 966 2803 966 2306 
Q 966 1694 1177 1281 
Q 1388 869 1791 669 
Q 2194 469 2647 469 
Q 3041 469 3416 620 
Q 3791 772 3984 944 
L 3984 1797 
L 2638 1797 
z
" transform="scale(0.015625)"/>
        <path id="ArialMT-4e" d="M 488 0 
L 488 4581 
L 1109 4581 
L 3516 984 
L 3516 4581 
L 4097 4581 
L 4097 0 
L 3475 0 
L 1069 3600 
L 1069 0 
L 488 0 
z
" transform="scale(0.015625)"/>
       </defs>
       <use xlink:href="#ArialMT-47"/>
       <use xlink:href="#ArialMT-6c" transform="translate(77.783203 0)"/>
       <use xlink:href="#ArialMT-61" transform="translate(100 0)"/>
       <use xlink:href="#ArialMT-73" transform="translate(155.615234 0)"/>
       <use xlink:href="#ArialMT-4e" transform="translate(205.615234 0)"/>
       <use xlink:href="#ArialMT-6f" transform="translate(277.832031 0)"/>
       <use xlink:href="#ArialMT-6e" transform="translate(333.447266 0)"/>
       <use xlink:href="#ArialMT-4d" transform="translate(389.0625 0)"/>
       <use xlink:href="#ArialMT-65" transform="translate(472.363281 0)"/>
       <use xlink:href="#ArialMT-74" transform="translate(527.978516 0)"/>
       <use xlink:href="#ArialMT-61" transform="translate(555.761719 0)"/>
       <use xlink:href="#ArialMT-6c" transform="translate(611.376953 0)"/>
      </g>
     </g>
    </g>
   </g>
   <g id="patch_3">
    <path d="M 332.082824 11.405807 
L 332.082824 45.05226 
L 372.833916 45.05226 
L 372.833916 11.405807 
L 332.082824 11.405807 
z
" clip-path="url(#p0eade377bb)" style="fill: #ca74db; stroke: #353535; stroke-linejoin: miter"/>
   </g>
   <g id="line2d_6">
    <path d="M 332.082824 28.229033 
L -1 28.229033 
" clip-path="url(#p0eade377bb)" style="fill: none; stroke: #353535"/>
   </g>
   <g id="line2d_7">
    <path d="M 372.833916 28.229033 
L 392.794244 28.229033 
" clip-path="url(#p0eade377bb)" style="fill: none; stroke: #353535"/>
   </g>
   <g id="line2d_8">
    <path clip-path="url(#p0eade377bb)" style="fill: none; stroke: #353535; stroke-linecap: round"/>
   </g>
   <g id="line2d_9">
    <path d="M 392.794244 19.81742 
L 392.794244 36.640646 
" clip-path="url(#p0eade377bb)" style="fill: none; stroke: #353535; stroke-linecap: round"/>
   </g>
   <g id="line2d_10">
    <defs>
     <path id="ma94b21844e" d="M 0 4.5 
C 1.193414 4.5 2.338109 4.025852 3.181981 3.181981 
C 4.025852 2.338109 4.5 1.193414 4.5 0 
C 4.5 -1.193414 4.025852 -2.338109 3.181981 -3.181981 
C 2.338109 -4.025852 1.193414 -4.5 0 -4.5 
C -1.193414 -4.5 -2.338109 -4.025852 -3.181981 -3.181981 
C -4.025852 -2.338109 -4.5 -1.193414 -4.5 0 
C -4.5 1.193414 -4.025852 2.338109 -3.181981 3.181981 
C -2.338109 4.025852 -1.193414 4.5 0 4.5 
z
" style="stroke: #353535"/>
    </defs>
    <g clip-path="url(#p0eade377bb)">
     <use xlink:href="#ma94b21844e" x="527.926316" y="28.229033" style="fill-opacity: 0; stroke: #353535"/>
     <use xlink:href="#ma94b21844e" x="402.97875" y="28.229033" style="fill-opacity: 0; stroke: #353535"/>
     <use xlink:href="#ma94b21844e" x="396.702552" y="28.229033" style="fill-opacity: 0; stroke: #353535"/>
     <use xlink:href="#ma94b21844e" x="450.454088" y="28.229033" style="fill-opacity: 0; stroke: #353535"/>
     <use xlink:href="#ma94b21844e" x="514.140124" y="28.229033" style="fill-opacity: 0; stroke: #353535"/>
     <use xlink:href="#ma94b21844e" x="443.912069" y="28.229033" style="fill-opacity: 0; stroke: #353535"/>
     <use xlink:href="#ma94b21844e" x="393.062416" y="28.229033" style="fill-opacity: 0; stroke: #353535"/>
     <use xlink:href="#ma94b21844e" x="405.625888" y="28.229033" style="fill-opacity: 0; stroke: #353535"/>
     <use xlink:href="#ma94b21844e" x="398.947872" y="28.229033" style="fill-opacity: 0; stroke: #353535"/>
     <use xlink:href="#ma94b21844e" x="401.192905" y="28.229033" style="fill-opacity: 0; stroke: #353535"/>
     <use xlink:href="#ma94b21844e" x="409.783637" y="28.229033" style="fill-opacity: 0; stroke: #353535"/>
     <use xlink:href="#ma94b21844e" x="422.997335" y="28.229033" style="fill-opacity: 0; stroke: #353535"/>
     <use xlink:href="#ma94b21844e" x="401.003137" y="28.229033" style="fill-opacity: 0; stroke: #353535"/>
     <use xlink:href="#ma94b21844e" x="396.856077" y="28.229033" style="fill-opacity: 0; stroke: #353535"/>
     <use xlink:href="#ma94b21844e" x="475.604451" y="28.229033" style="fill-opacity: 0; stroke: #353535"/>
     <use xlink:href="#ma94b21844e" x="415.518589" y="28.229033" style="fill-opacity: 0; stroke: #353535"/>
     <use xlink:href="#ma94b21844e" x="479.084348" y="28.229033" style="fill-opacity: 0; stroke: #353535"/>
     <use xlink:href="#ma94b21844e" x="439.248236" y="28.229033" style="fill-opacity: 0; stroke: #353535"/>
     <use xlink:href="#ma94b21844e" x="404.048292" y="28.229033" style="fill-opacity: 0; stroke: #353535"/>
     <use xlink:href="#ma94b21844e" x="443.995127" y="28.229033" style="fill-opacity: 0; stroke: #353535"/>
     <use xlink:href="#ma94b21844e" x="431.246865" y="28.229033" style="fill-opacity: 0; stroke: #353535"/>
     <use xlink:href="#ma94b21844e" x="422.336295" y="28.229033" style="fill-opacity: 0; stroke: #353535"/>
     <use xlink:href="#ma94b21844e" x="614.802905" y="28.229033" style="fill-opacity: 0; stroke: #353535"/>
     <use xlink:href="#ma94b21844e" x="400.274066" y="28.229033" style="fill-opacity: 0; stroke: #353535"/>
     <use xlink:href="#ma94b21844e" x="405.896167" y="28.229033" style="fill-opacity: 0; stroke: #353535"/>
     <use xlink:href="#ma94b21844e" x="543.341689" y="28.229033" style="fill-opacity: 0; stroke: #353535"/>
     <use xlink:href="#ma94b21844e" x="433.375849" y="28.229033" style="fill-opacity: 0; stroke: #353535"/>
     <use xlink:href="#ma94b21844e" x="458.18092" y="28.229033" style="fill-opacity: 0; stroke: #353535"/>
     <use xlink:href="#ma94b21844e" x="490.874547" y="28.229033" style="fill-opacity: 0; stroke: #353535"/>
     <use xlink:href="#ma94b21844e" x="442.863372" y="28.229033" style="fill-opacity: 0; stroke: #353535"/>
     <use xlink:href="#ma94b21844e" x="505.971096" y="28.229033" style="fill-opacity: 0; stroke: #353535"/>
     <use xlink:href="#ma94b21844e" x="487.220314" y="28.229033" style="fill-opacity: 0; stroke: #353535"/>
     <use xlink:href="#ma94b21844e" x="405.166805" y="28.229033" style="fill-opacity: 0; stroke: #353535"/>
     <use xlink:href="#ma94b21844e" x="395.710302" y="28.229033" style="fill-opacity: 0; stroke: #353535"/>
     <use xlink:href="#ma94b21844e" x="397.293968" y="28.229033" style="fill-opacity: 0; stroke: #353535"/>
     <use xlink:href="#ma94b21844e" x="476.185315" y="28.229033" style="fill-opacity: 0; stroke: #353535"/>
     <use xlink:href="#ma94b21844e" x="420.212572" y="28.229033" style="fill-opacity: 0; stroke: #353535"/>
     <use xlink:href="#ma94b21844e" x="400.812676" y="28.229033" style="fill-opacity: 0; stroke: #353535"/>
     <use xlink:href="#ma94b21844e" x="448.790612" y="28.229033" style="fill-opacity: 0; stroke: #353535"/>
     <use xlink:href="#ma94b21844e" x="419.245377" y="28.229033" style="fill-opacity: 0; stroke: #353535"/>
     <use xlink:href="#ma94b21844e" x="400.542931" y="28.229033" style="fill-opacity: 0; stroke: #353535"/>
     <use xlink:href="#ma94b21844e" x="581.036814" y="28.229033" style="fill-opacity: 0; stroke: #353535"/>
     <use xlink:href="#ma94b21844e" x="463.51464" y="28.229033" style="fill-opacity: 0; stroke: #353535"/>
     <use xlink:href="#ma94b21844e" x="486.087229" y="28.229033" style="fill-opacity: 0; stroke: #353535"/>
     <use xlink:href="#ma94b21844e" x="425.289069" y="28.229033" style="fill-opacity: 0; stroke: #353535"/>
     <use xlink:href="#ma94b21844e" x="482.105674" y="28.229033" style="fill-opacity: 0; stroke: #353535"/>
     <use xlink:href="#ma94b21844e" x="443.863428" y="28.229033" style="fill-opacity: 0; stroke: #353535"/>
     <use xlink:href="#ma94b21844e" x="404.805715" y="28.229033" style="fill-opacity: 0; stroke: #353535"/>
     <use xlink:href="#ma94b21844e" x="421.023894" y="28.229033" style="fill-opacity: 0; stroke: #353535"/>
     <use xlink:href="#ma94b21844e" x="393.396045" y="28.229033" style="fill-opacity: 0; stroke: #353535"/>
     <use xlink:href="#ma94b21844e" x="449.507371" y="28.229033" style="fill-opacity: 0; stroke: #353535"/>
     <use xlink:href="#ma94b21844e" x="433.946194" y="28.229033" style="fill-opacity: 0; stroke: #353535"/>
     <use xlink:href="#ma94b21844e" x="456.019355" y="28.229033" style="fill-opacity: 0; stroke: #353535"/>
     <use xlink:href="#ma94b21844e" x="470.6533" y="28.229033" style="fill-opacity: 0; stroke: #353535"/>
     <use xlink:href="#ma94b21844e" x="400.264589" y="28.229033" style="fill-opacity: 0; stroke: #353535"/>
     <use xlink:href="#ma94b21844e" x="419.962581" y="28.229033" style="fill-opacity: 0; stroke: #353535"/>
     <use xlink:href="#ma94b21844e" x="455.022908" y="28.229033" style="fill-opacity: 0; stroke: #353535"/>
     <use xlink:href="#ma94b21844e" x="487.880065" y="28.229033" style="fill-opacity: 0; stroke: #353535"/>
     <use xlink:href="#ma94b21844e" x="481.637259" y="28.229033" style="fill-opacity: 0; stroke: #353535"/>
     <use xlink:href="#ma94b21844e" x="393.904776" y="28.229033" style="fill-opacity: 0; stroke: #353535"/>
     <use xlink:href="#ma94b21844e" x="419.048004" y="28.229033" style="fill-opacity: 0; stroke: #353535"/>
     <use xlink:href="#ma94b21844e" x="419.687383" y="28.229033" style="fill-opacity: 0; stroke: #353535"/>
     <use xlink:href="#ma94b21844e" x="403.197678" y="28.229033" style="fill-opacity: 0; stroke: #353535"/>
     <use xlink:href="#ma94b21844e" x="418.302709" y="28.229033" style="fill-opacity: 0; stroke: #353535"/>
     <use xlink:href="#ma94b21844e" x="495.096208" y="28.229033" style="fill-opacity: 0; stroke: #353535"/>
     <use xlink:href="#ma94b21844e" x="571.230183" y="28.229033" style="fill-opacity: 0; stroke: #353535"/>
     <use xlink:href="#ma94b21844e" x="443.222838" y="28.229033" style="fill-opacity: 0; stroke: #353535"/>
     <use xlink:href="#ma94b21844e" x="400.354854" y="28.229033" style="fill-opacity: 0; stroke: #353535"/>
     <use xlink:href="#ma94b21844e" x="447.799957" y="28.229033" style="fill-opacity: 0; stroke: #353535"/>
     <use xlink:href="#ma94b21844e" x="445.912399" y="28.229033" style="fill-opacity: 0; stroke: #353535"/>
     <use xlink:href="#ma94b21844e" x="483.410463" y="28.229033" style="fill-opacity: 0; stroke: #353535"/>
     <use xlink:href="#ma94b21844e" x="429.769981" y="28.229033" style="fill-opacity: 0; stroke: #353535"/>
     <use xlink:href="#ma94b21844e" x="443.10602" y="28.229033" style="fill-opacity: 0; stroke: #353535"/>
     <use xlink:href="#ma94b21844e" x="428.464603" y="28.229033" style="fill-opacity: 0; stroke: #353535"/>
     <use xlink:href="#ma94b21844e" x="490.83127" y="28.229033" style="fill-opacity: 0; stroke: #353535"/>
     <use xlink:href="#ma94b21844e" x="415.962778" y="28.229033" style="fill-opacity: 0; stroke: #353535"/>
     <use xlink:href="#ma94b21844e" x="400.441372" y="28.229033" style="fill-opacity: 0; stroke: #353535"/>
     <use xlink:href="#ma94b21844e" x="452.963637" y="28.229033" style="fill-opacity: 0; stroke: #353535"/>
     <use xlink:href="#ma94b21844e" x="648.008763" y="28.229033" style="fill-opacity: 0; stroke: #353535"/>
     <use xlink:href="#ma94b21844e" x="423.093772" y="28.229033" style="fill-opacity: 0; stroke: #353535"/>
     <use xlink:href="#ma94b21844e" x="495.371848" y="28.229033" style="fill-opacity: 0; stroke: #353535"/>
     <use xlink:href="#ma94b21844e" x="402.97875" y="28.229033" style="fill-opacity: 0; stroke: #353535"/>
     <use xlink:href="#ma94b21844e" x="504.924358" y="28.229033" style="fill-opacity: 0; stroke: #353535"/>
    </g>
   </g>
   <g id="patch_4">
    <path d="M 387.608226 53.463873 
L 387.608226 87.110326 
L 452.00305 87.110326 
L 452.00305 53.463873 
L 387.608226 53.463873 
z
" clip-path="url(#p0eade377bb)" style="fill: #5ca236; stroke: #353535; stroke-linejoin: miter"/>
   </g>
   <g id="line2d_11">
    <path d="M 387.608226 70.2871 
L 279.434747 70.2871 
" clip-path="url(#p0eade377bb)" style="fill: none; stroke: #353535"/>
   </g>
   <g id="line2d_12">
    <path d="M 452.00305 70.2871 
L 467.191647 70.2871 
" clip-path="url(#p0eade377bb)" style="fill: none; stroke: #353535"/>
   </g>
   <g id="line2d_13">
    <path d="M 279.434747 61.875486 
L 279.434747 78.698713 
" clip-path="url(#p0eade377bb)" style="fill: none; stroke: #353535; stroke-linecap: round"/>
   </g>
   <g id="line2d_14">
    <path d="M 467.191647 61.875486 
L 467.191647 78.698713 
" clip-path="url(#p0eade377bb)" style="fill: none; stroke: #353535; stroke-linecap: round"/>
   </g>
   <g id="line2d_15">
    <g clip-path="url(#p0eade377bb)">
     <use xlink:href="#ma94b21844e" x="519.694389" y="70.2871" style="fill-opacity: 0; stroke: #353535"/>
     <use xlink:href="#ma94b21844e" x="510.75339" y="70.2871" style="fill-opacity: 0; stroke: #353535"/>
     <use xlink:href="#ma94b21844e" x="510.875227" y="70.2871" style="fill-opacity: 0; stroke: #353535"/>
     <use xlink:href="#ma94b21844e" x="476.418518" y="70.2871" style="fill-opacity: 0; stroke: #353535"/>
     <use xlink:href="#ma94b21844e" x="510.841158" y="70.2871" style="fill-opacity: 0; stroke: #353535"/>
     <use xlink:href="#ma94b21844e" x="526.816446" y="70.2871" style="fill-opacity: 0; stroke: #353535"/>
     <use xlink:href="#ma94b21844e" x="526.766195" y="70.2871" style="fill-opacity: 0; stroke: #353535"/>
     <use xlink:href="#ma94b21844e" x="484.725931" y="70.2871" style="fill-opacity: 0; stroke: #353535"/>
     <use xlink:href="#ma94b21844e" x="510.841158" y="70.2871" style="fill-opacity: 0; stroke: #353535"/>
     <use xlink:href="#ma94b21844e" x="556.272534" y="70.2871" style="fill-opacity: 0; stroke: #353535"/>
     <use xlink:href="#ma94b21844e" x="506.82998" y="70.2871" style="fill-opacity: 0; stroke: #353535"/>
     <use xlink:href="#ma94b21844e" x="561.173216" y="70.2871" style="fill-opacity: 0; stroke: #353535"/>
     <use xlink:href="#ma94b21844e" x="506.891801" y="70.2871" style="fill-opacity: 0; stroke: #353535"/>
     <use xlink:href="#ma94b21844e" x="519.782505" y="70.2871" style="fill-opacity: 0; stroke: #353535"/>
     <use xlink:href="#ma94b21844e" x="476.316723" y="70.2871" style="fill-opacity: 0; stroke: #353535"/>
     <use xlink:href="#ma94b21844e" x="557.776318" y="70.2871" style="fill-opacity: 0; stroke: #353535"/>
    </g>
   </g>
   <g id="patch_5">
    <path d="M 224.513753 95.521939 
L 224.513753 129.168393 
L 321.449756 129.168393 
L 321.449756 95.521939 
L 224.513753 95.521939 
z
" clip-path="url(#p0eade377bb)" style="fill: #68afd7; stroke: #353535; stroke-linejoin: miter"/>
   </g>
   <g id="line2d_16">
    <path d="M 224.513753 112.345166 
L -1 112.345166 
" clip-path="url(#p0eade377bb)" style="fill: none; stroke: #353535"/>
   </g>
   <g id="line2d_17">
    <path d="M 321.449756 112.345166 
L 344.283331 112.345166 
" clip-path="url(#p0eade377bb)" style="fill: none; stroke: #353535"/>
   </g>
   <g id="line2d_18">
    <path clip-path="url(#p0eade377bb)" style="fill: none; stroke: #353535; stroke-linecap: round"/>
   </g>
   <g id="line2d_19">
    <path d="M 344.283331 103.933553 
L 344.283331 120.756779 
" clip-path="url(#p0eade377bb)" style="fill: none; stroke: #353535; stroke-linecap: round"/>
   </g>
   <g id="line2d_20">
    <g clip-path="url(#p0eade377bb)">
     <use xlink:href="#ma94b21844e" x="585.761656" y="112.345166" style="fill-opacity: 0; stroke: #353535"/>
     <use xlink:href="#ma94b21844e" x="390.419197" y="112.345166" style="fill-opacity: 0; stroke: #353535"/>
     <use xlink:href="#ma94b21844e" x="380.814557" y="112.345166" style="fill-opacity: 0; stroke: #353535"/>
     <use xlink:href="#ma94b21844e" x="390.419197" y="112.345166" style="fill-opacity: 0; stroke: #353535"/>
     <use xlink:href="#ma94b21844e" x="414.655645" y="112.345166" style="fill-opacity: 0; stroke: #353535"/>
     <use xlink:href="#ma94b21844e" x="584.001497" y="112.345166" style="fill-opacity: 0; stroke: #353535"/>
     <use xlink:href="#ma94b21844e" x="587.368075" y="112.345166" style="fill-opacity: 0; stroke: #353535"/>
     <use xlink:href="#ma94b21844e" x="584.028727" y="112.345166" style="fill-opacity: 0; stroke: #353535"/>
     <use xlink:href="#ma94b21844e" x="587.368153" y="112.345166" style="fill-opacity: 0; stroke: #353535"/>
     <use xlink:href="#ma94b21844e" x="587.549967" y="112.345166" style="fill-opacity: 0; stroke: #353535"/>
     <use xlink:href="#ma94b21844e" x="361.574418" y="112.345166" style="fill-opacity: 0; stroke: #353535"/>
     <use xlink:href="#ma94b21844e" x="370.122196" y="112.345166" style="fill-opacity: 0; stroke: #353535"/>
     <use xlink:href="#ma94b21844e" x="580.23328" y="112.345166" style="fill-opacity: 0; stroke: #353535"/>
     <use xlink:href="#ma94b21844e" x="533.165114" y="112.345166" style="fill-opacity: 0; stroke: #353535"/>
     <use xlink:href="#ma94b21844e" x="584.10378" y="112.345166" style="fill-opacity: 0; stroke: #353535"/>
     <use xlink:href="#ma94b21844e" x="529.185288" y="112.345166" style="fill-opacity: 0; stroke: #353535"/>
     <use xlink:href="#ma94b21844e" x="369.538606" y="112.345166" style="fill-opacity: 0; stroke: #353535"/>
     <use xlink:href="#ma94b21844e" x="439.788561" y="112.345166" style="fill-opacity: 0; stroke: #353535"/>
     <use xlink:href="#ma94b21844e" x="370.831782" y="112.345166" style="fill-opacity: 0; stroke: #353535"/>
     <use xlink:href="#ma94b21844e" x="586.767386" y="112.345166" style="fill-opacity: 0; stroke: #353535"/>
     <use xlink:href="#ma94b21844e" x="367.906826" y="112.345166" style="fill-opacity: 0; stroke: #353535"/>
     <use xlink:href="#ma94b21844e" x="391.047717" y="112.345166" style="fill-opacity: 0; stroke: #353535"/>
     <use xlink:href="#ma94b21844e" x="344.547927" y="112.345166" style="fill-opacity: 0; stroke: #353535"/>
     <use xlink:href="#ma94b21844e" x="588.111281" y="112.345166" style="fill-opacity: 0; stroke: #353535"/>
     <use xlink:href="#ma94b21844e" x="388.553672" y="112.345166" style="fill-opacity: 0; stroke: #353535"/>
     <use xlink:href="#ma94b21844e" x="471.884514" y="112.345166" style="fill-opacity: 0; stroke: #353535"/>
     <use xlink:href="#ma94b21844e" x="370.955553" y="112.345166" style="fill-opacity: 0; stroke: #353535"/>
     <use xlink:href="#ma94b21844e" x="589.478814" y="112.345166" style="fill-opacity: 0; stroke: #353535"/>
     <use xlink:href="#ma94b21844e" x="365.375172" y="112.345166" style="fill-opacity: 0; stroke: #353535"/>
     <use xlink:href="#ma94b21844e" x="361.495347" y="112.345166" style="fill-opacity: 0; stroke: #353535"/>
     <use xlink:href="#ma94b21844e" x="589.478892" y="112.345166" style="fill-opacity: 0; stroke: #353535"/>
    </g>
   </g>
   <g id="patch_6">
    <path d="M 330.914256 137.580006 
L 330.914256 171.226459 
L 417.728043 171.226459 
L 417.728043 137.580006 
L 330.914256 137.580006 
z
" clip-path="url(#p0eade377bb)" style="fill: #daac58; stroke: #353535; stroke-linejoin: miter"/>
   </g>
   <g id="line2d_21">
    <path d="M 330.914256 154.403232 
L 218.552057 154.403232 
" clip-path="url(#p0eade377bb)" style="fill: none; stroke: #353535"/>
   </g>
   <g id="line2d_22">
    <path d="M 417.728043 154.403232 
L 438.147044 154.403232 
" clip-path="url(#p0eade377bb)" style="fill: none; stroke: #353535"/>
   </g>
   <g id="line2d_23">
    <path d="M 218.552057 145.991619 
L 218.552057 162.814846 
" clip-path="url(#p0eade377bb)" style="fill: none; stroke: #353535; stroke-linecap: round"/>
   </g>
   <g id="line2d_24">
    <path d="M 438.147044 145.991619 
L 438.147044 162.814846 
" clip-path="url(#p0eade377bb)" style="fill: none; stroke: #353535; stroke-linecap: round"/>
   </g>
   <g id="line2d_25">
    <g clip-path="url(#p0eade377bb)">
     <use xlink:href="#ma94b21844e" x="471.534033" y="154.403232" style="fill-opacity: 0; stroke: #353535"/>
     <use xlink:href="#ma94b21844e" x="490.364719" y="154.403232" style="fill-opacity: 0; stroke: #353535"/>
     <use xlink:href="#ma94b21844e" x="653.39649" y="154.403232" style="fill-opacity: 0; stroke: #353535"/>
     <use xlink:href="#ma94b21844e" x="538.879713" y="154.403232" style="fill-opacity: 0; stroke: #353535"/>
     <use xlink:href="#ma94b21844e" x="467.199051" y="154.403232" style="fill-opacity: 0; stroke: #353535"/>
     <use xlink:href="#ma94b21844e" x="470.624111" y="154.403232" style="fill-opacity: 0; stroke: #353535"/>
     <use xlink:href="#ma94b21844e" x="646.954782" y="154.403232" style="fill-opacity: 0; stroke: #353535"/>
     <use xlink:href="#ma94b21844e" x="512.156417" y="154.403232" style="fill-opacity: 0; stroke: #353535"/>
     <use xlink:href="#ma94b21844e" x="634.032121" y="154.403232" style="fill-opacity: 0; stroke: #353535"/>
     <use xlink:href="#ma94b21844e" x="459.618297" y="154.403232" style="fill-opacity: 0; stroke: #353535"/>
     <use xlink:href="#ma94b21844e" x="486.116832" y="154.403232" style="fill-opacity: 0; stroke: #353535"/>
     <use xlink:href="#ma94b21844e" x="476.860572" y="154.403232" style="fill-opacity: 0; stroke: #353535"/>
     <use xlink:href="#ma94b21844e" x="460.231185" y="154.403232" style="fill-opacity: 0; stroke: #353535"/>
     <use xlink:href="#ma94b21844e" x="635.669249" y="154.403232" style="fill-opacity: 0; stroke: #353535"/>
    </g>
   </g>
   <g id="patch_7">
    <path d="M 268.572074 179.638072 
L 268.572074 213.284525 
L 312.730656 213.284525 
L 312.730656 179.638072 
L 268.572074 179.638072 
z
" clip-path="url(#p0eade377bb)" style="fill: #166c9c; stroke: #353535; stroke-linejoin: miter"/>
   </g>
   <g id="line2d_26">
    <path d="M 268.572074 196.461299 
L -1 196.461299 
" clip-path="url(#p0eade377bb)" style="fill: none; stroke: #353535"/>
   </g>
   <g id="line2d_27">
    <path d="M 312.730656 196.461299 
L 332.300702 196.461299 
" clip-path="url(#p0eade377bb)" style="fill: none; stroke: #353535"/>
   </g>
   <g id="line2d_28">
    <path clip-path="url(#p0eade377bb)" style="fill: none; stroke: #353535; stroke-linecap: round"/>
   </g>
   <g id="line2d_29">
    <path d="M 332.300702 188.049686 
L 332.300702 204.872912 
" clip-path="url(#p0eade377bb)" style="fill: none; stroke: #353535; stroke-linecap: round"/>
   </g>
   <g id="line2d_30">
    <g clip-path="url(#p0eade377bb)">
     <use xlink:href="#ma94b21844e" x="339.023995" y="196.461299" style="fill-opacity: 0; stroke: #353535"/>
     <use xlink:href="#ma94b21844e" x="381.13896" y="196.461299" style="fill-opacity: 0; stroke: #353535"/>
     <use xlink:href="#ma94b21844e" x="356.886344" y="196.461299" style="fill-opacity: 0; stroke: #353535"/>
     <use xlink:href="#ma94b21844e" x="333.599398" y="196.461299" style="fill-opacity: 0; stroke: #353535"/>
     <use xlink:href="#ma94b21844e" x="359.830159" y="196.461299" style="fill-opacity: 0; stroke: #353535"/>
     <use xlink:href="#ma94b21844e" x="338.50225" y="196.461299" style="fill-opacity: 0; stroke: #353535"/>
     <use xlink:href="#ma94b21844e" x="351.432255" y="196.461299" style="fill-opacity: 0; stroke: #353535"/>
     <use xlink:href="#ma94b21844e" x="339.573817" y="196.461299" style="fill-opacity: 0; stroke: #353535"/>
     <use xlink:href="#ma94b21844e" x="367.81277" y="196.461299" style="fill-opacity: 0; stroke: #353535"/>
     <use xlink:href="#ma94b21844e" x="389.008904" y="196.461299" style="fill-opacity: 0; stroke: #353535"/>
     <use xlink:href="#ma94b21844e" x="361.721413" y="196.461299" style="fill-opacity: 0; stroke: #353535"/>
     <use xlink:href="#ma94b21844e" x="351.879106" y="196.461299" style="fill-opacity: 0; stroke: #353535"/>
     <use xlink:href="#ma94b21844e" x="379.471204" y="196.461299" style="fill-opacity: 0; stroke: #353535"/>
     <use xlink:href="#ma94b21844e" x="397.57733" y="196.461299" style="fill-opacity: 0; stroke: #353535"/>
     <use xlink:href="#ma94b21844e" x="348.98859" y="196.461299" style="fill-opacity: 0; stroke: #353535"/>
     <use xlink:href="#ma94b21844e" x="358.682548" y="196.461299" style="fill-opacity: 0; stroke: #353535"/>
     <use xlink:href="#ma94b21844e" x="339.142304" y="196.461299" style="fill-opacity: 0; stroke: #353535"/>
     <use xlink:href="#ma94b21844e" x="426.043397" y="196.461299" style="fill-opacity: 0; stroke: #353535"/>
     <use xlink:href="#ma94b21844e" x="379.625253" y="196.461299" style="fill-opacity: 0; stroke: #353535"/>
     <use xlink:href="#ma94b21844e" x="367.657793" y="196.461299" style="fill-opacity: 0; stroke: #353535"/>
     <use xlink:href="#ma94b21844e" x="351.858161" y="196.461299" style="fill-opacity: 0; stroke: #353535"/>
    </g>
   </g>
   <g id="patch_8">
    <path d="M 279.450428 221.696139 
L 279.450428 255.342592 
L 363.292768 255.342592 
L 363.292768 221.696139 
L 279.450428 221.696139 
z
" clip-path="url(#p0eade377bb)" style="fill: #ba611b; stroke: #353535; stroke-linejoin: miter"/>
   </g>
   <g id="line2d_31">
    <path d="M 279.450428 238.519365 
L -1 238.519365 
" clip-path="url(#p0eade377bb)" style="fill: none; stroke: #353535"/>
   </g>
   <g id="line2d_32">
    <path d="M 363.292768 238.519365 
L 383.622822 238.519365 
" clip-path="url(#p0eade377bb)" style="fill: none; stroke: #353535"/>
   </g>
   <g id="line2d_33">
    <path clip-path="url(#p0eade377bb)" style="fill: none; stroke: #353535; stroke-linecap: round"/>
   </g>
   <g id="line2d_34">
    <path d="M 383.622822 230.107752 
L 383.622822 246.930979 
" clip-path="url(#p0eade377bb)" style="fill: none; stroke: #353535; stroke-linecap: round"/>
   </g>
   <g id="line2d_35">
    <g clip-path="url(#p0eade377bb)">
     <use xlink:href="#ma94b21844e" x="477.876867" y="238.519365" style="fill-opacity: 0; stroke: #353535"/>
     <use xlink:href="#ma94b21844e" x="465.731475" y="238.519365" style="fill-opacity: 0; stroke: #353535"/>
     <use xlink:href="#ma94b21844e" x="424.782781" y="238.519365" style="fill-opacity: 0; stroke: #353535"/>
     <use xlink:href="#ma94b21844e" x="401.20615" y="238.519365" style="fill-opacity: 0; stroke: #353535"/>
     <use xlink:href="#ma94b21844e" x="412.310523" y="238.519365" style="fill-opacity: 0; stroke: #353535"/>
     <use xlink:href="#ma94b21844e" x="391.045321" y="238.519365" style="fill-opacity: 0; stroke: #353535"/>
     <use xlink:href="#ma94b21844e" x="466.86166" y="238.519365" style="fill-opacity: 0; stroke: #353535"/>
     <use xlink:href="#ma94b21844e" x="420.871071" y="238.519365" style="fill-opacity: 0; stroke: #353535"/>
     <use xlink:href="#ma94b21844e" x="460.583024" y="238.519365" style="fill-opacity: 0; stroke: #353535"/>
     <use xlink:href="#ma94b21844e" x="421.140674" y="238.519365" style="fill-opacity: 0; stroke: #353535"/>
     <use xlink:href="#ma94b21844e" x="399.948872" y="238.519365" style="fill-opacity: 0; stroke: #353535"/>
     <use xlink:href="#ma94b21844e" x="465.76377" y="238.519365" style="fill-opacity: 0; stroke: #353535"/>
     <use xlink:href="#ma94b21844e" x="402.826438" y="238.519365" style="fill-opacity: 0; stroke: #353535"/>
     <use xlink:href="#ma94b21844e" x="399.960876" y="238.519365" style="fill-opacity: 0; stroke: #353535"/>
     <use xlink:href="#ma94b21844e" x="435.00025" y="238.519365" style="fill-opacity: 0; stroke: #353535"/>
     <use xlink:href="#ma94b21844e" x="436.634534" y="238.519365" style="fill-opacity: 0; stroke: #353535"/>
     <use xlink:href="#ma94b21844e" x="408.050102" y="238.519365" style="fill-opacity: 0; stroke: #353535"/>
     <use xlink:href="#ma94b21844e" x="401.061558" y="238.519365" style="fill-opacity: 0; stroke: #353535"/>
     <use xlink:href="#ma94b21844e" x="466.706698" y="238.519365" style="fill-opacity: 0; stroke: #353535"/>
     <use xlink:href="#ma94b21844e" x="388.296718" y="238.519365" style="fill-opacity: 0; stroke: #353535"/>
     <use xlink:href="#ma94b21844e" x="442.857124" y="238.519365" style="fill-opacity: 0; stroke: #353535"/>
     <use xlink:href="#ma94b21844e" x="466.66943" y="238.519365" style="fill-opacity: 0; stroke: #353535"/>
     <use xlink:href="#ma94b21844e" x="389.65946" y="238.519365" style="fill-opacity: 0; stroke: #353535"/>
    </g>
   </g>
   <g id="patch_9">
    <path d="M 292.231514 263.754205 
L 292.231514 297.400658 
L 353.059508 297.400658 
L 353.059508 263.754205 
L 292.231514 263.754205 
z
" clip-path="url(#p0eade377bb)" style="fill: #e33eb2; stroke: #353535; stroke-linejoin: miter"/>
   </g>
   <g id="line2d_36">
    <path d="M 292.231514 280.577432 
L 158.44455 280.577432 
" clip-path="url(#p0eade377bb)" style="fill: none; stroke: #353535"/>
   </g>
   <g id="line2d_37">
    <path d="M 353.059508 280.577432 
L 371.386099 280.577432 
" clip-path="url(#p0eade377bb)" style="fill: none; stroke: #353535"/>
   </g>
   <g id="line2d_38">
    <path d="M 158.44455 272.165818 
L 158.44455 288.989045 
" clip-path="url(#p0eade377bb)" style="fill: none; stroke: #353535; stroke-linecap: round"/>
   </g>
   <g id="line2d_39">
    <path d="M 371.386099 272.165818 
L 371.386099 288.989045 
" clip-path="url(#p0eade377bb)" style="fill: none; stroke: #353535; stroke-linecap: round"/>
   </g>
   <g id="line2d_40">
    <g clip-path="url(#p0eade377bb)">
     <use xlink:href="#ma94b21844e" x="414.873582" y="280.577432" style="fill-opacity: 0; stroke: #353535"/>
     <use xlink:href="#ma94b21844e" x="387.859037" y="280.577432" style="fill-opacity: 0; stroke: #353535"/>
     <use xlink:href="#ma94b21844e" x="384.172098" y="280.577432" style="fill-opacity: 0; stroke: #353535"/>
     <use xlink:href="#ma94b21844e" x="423.200425" y="280.577432" style="fill-opacity: 0; stroke: #353535"/>
     <use xlink:href="#ma94b21844e" x="386.46442" y="280.577432" style="fill-opacity: 0; stroke: #353535"/>
     <use xlink:href="#ma94b21844e" x="386.213252" y="280.577432" style="fill-opacity: 0; stroke: #353535"/>
     <use xlink:href="#ma94b21844e" x="383.114032" y="280.577432" style="fill-opacity: 0; stroke: #353535"/>
     <use xlink:href="#ma94b21844e" x="377.784559" y="280.577432" style="fill-opacity: 0; stroke: #353535"/>
     <use xlink:href="#ma94b21844e" x="389.330784" y="280.577432" style="fill-opacity: 0; stroke: #353535"/>
    </g>
   </g>
   <g id="patch_10">
    <path d="M 290.197997 305.812271 
L 290.197997 339.458725 
L 323.13718 339.458725 
L 323.13718 305.812271 
L 290.197997 305.812271 
z
" clip-path="url(#p0eade377bb)" style="fill: #38be4e; stroke: #353535; stroke-linejoin: miter"/>
   </g>
   <g id="line2d_41">
    <path d="M 290.197997 322.635498 
L -1 322.635498 
" clip-path="url(#p0eade377bb)" style="fill: none; stroke: #353535"/>
   </g>
   <g id="line2d_42">
    <path d="M 323.13718 322.635498 
L 335.426397 322.635498 
" clip-path="url(#p0eade377bb)" style="fill: none; stroke: #353535"/>
   </g>
   <g id="line2d_43">
    <path clip-path="url(#p0eade377bb)" style="fill: none; stroke: #353535; stroke-linecap: round"/>
   </g>
   <g id="line2d_44">
    <path d="M 335.426397 314.223885 
L 335.426397 331.047111 
" clip-path="url(#p0eade377bb)" style="fill: none; stroke: #353535; stroke-linecap: round"/>
   </g>
   <g id="line2d_45">
    <g clip-path="url(#p0eade377bb)">
     <use xlink:href="#ma94b21844e" x="396.363388" y="322.635498" style="fill-opacity: 0; stroke: #353535"/>
     <use xlink:href="#ma94b21844e" x="390.715711" y="322.635498" style="fill-opacity: 0; stroke: #353535"/>
     <use xlink:href="#ma94b21844e" x="384.368991" y="322.635498" style="fill-opacity: 0; stroke: #353535"/>
     <use xlink:href="#ma94b21844e" x="355.637936" y="322.635498" style="fill-opacity: 0; stroke: #353535"/>
     <use xlink:href="#ma94b21844e" x="356.167268" y="322.635498" style="fill-opacity: 0; stroke: #353535"/>
     <use xlink:href="#ma94b21844e" x="348.665917" y="322.635498" style="fill-opacity: 0; stroke: #353535"/>
     <use xlink:href="#ma94b21844e" x="346.055933" y="322.635498" style="fill-opacity: 0; stroke: #353535"/>
     <use xlink:href="#ma94b21844e" x="362.443417" y="322.635498" style="fill-opacity: 0; stroke: #353535"/>
     <use xlink:href="#ma94b21844e" x="344.890016" y="322.635498" style="fill-opacity: 0; stroke: #353535"/>
     <use xlink:href="#ma94b21844e" x="342.628677" y="322.635498" style="fill-opacity: 0; stroke: #353535"/>
     <use xlink:href="#ma94b21844e" x="368.347466" y="322.635498" style="fill-opacity: 0; stroke: #353535"/>
     <use xlink:href="#ma94b21844e" x="371.630439" y="322.635498" style="fill-opacity: 0; stroke: #353535"/>
     <use xlink:href="#ma94b21844e" x="354.269421" y="322.635498" style="fill-opacity: 0; stroke: #353535"/>
     <use xlink:href="#ma94b21844e" x="356.942803" y="322.635498" style="fill-opacity: 0; stroke: #353535"/>
     <use xlink:href="#ma94b21844e" x="343.395725" y="322.635498" style="fill-opacity: 0; stroke: #353535"/>
     <use xlink:href="#ma94b21844e" x="346.617925" y="322.635498" style="fill-opacity: 0; stroke: #353535"/>
     <use xlink:href="#ma94b21844e" x="376.842877" y="322.635498" style="fill-opacity: 0; stroke: #353535"/>
     <use xlink:href="#ma94b21844e" x="386.784158" y="322.635498" style="fill-opacity: 0; stroke: #353535"/>
     <use xlink:href="#ma94b21844e" x="357.006285" y="322.635498" style="fill-opacity: 0; stroke: #353535"/>
     <use xlink:href="#ma94b21844e" x="348.862919" y="322.635498" style="fill-opacity: 0; stroke: #353535"/>
     <use xlink:href="#ma94b21844e" x="344.450821" y="322.635498" style="fill-opacity: 0; stroke: #353535"/>
     <use xlink:href="#ma94b21844e" x="363.659116" y="322.635498" style="fill-opacity: 0; stroke: #353535"/>
     <use xlink:href="#ma94b21844e" x="342.437962" y="322.635498" style="fill-opacity: 0; stroke: #353535"/>
    </g>
   </g>
   <g id="line2d_46">
    <path d="M 351.08227 11.405807 
L 351.08227 45.05226 
" clip-path="url(#p0eade377bb)" style="fill: none; stroke: #353535"/>
   </g>
   <g id="line2d_47">
    <path d="M 421.311651 53.463873 
L 421.311651 87.110326 
" clip-path="url(#p0eade377bb)" style="fill: none; stroke: #353535"/>
   </g>
   <g id="line2d_48">
    <path d="M 269.811902 95.521939 
L 269.811902 129.168393 
" clip-path="url(#p0eade377bb)" style="fill: none; stroke: #353535"/>
   </g>
   <g id="line2d_49">
    <path d="M 382.32277 137.580006 
L 382.32277 171.226459 
" clip-path="url(#p0eade377bb)" style="fill: none; stroke: #353535"/>
   </g>
   <g id="line2d_50">
    <path d="M 293.076445 179.638072 
L 293.076445 213.284525 
" clip-path="url(#p0eade377bb)" style="fill: none; stroke: #353535"/>
   </g>
   <g id="line2d_51">
    <path d="M 316.324174 221.696139 
L 316.324174 255.342592 
" clip-path="url(#p0eade377bb)" style="fill: none; stroke: #353535"/>
   </g>
   <g id="line2d_52">
    <path d="M 336.272257 263.754205 
L 336.272257 297.400658 
" clip-path="url(#p0eade377bb)" style="fill: none; stroke: #353535"/>
   </g>
   <g id="line2d_53">
    <path d="M 310.323677 305.812271 
L 310.323677 339.458725 
" clip-path="url(#p0eade377bb)" style="fill: none; stroke: #353535"/>
   </g>
   <g id="patch_11">
    <path d="M 133.696953 343.664531 
L 133.696953 7.2 
" style="fill: none; stroke: #cccccc; stroke-width: 1.875; stroke-linejoin: miter; stroke-linecap: square"/>
   </g>
   <g id="patch_12">
    <path d="M 678.144087 343.664531 
L 678.144087 7.2 
" style="fill: none; stroke: #cccccc; stroke-width: 1.875; stroke-linejoin: miter; stroke-linecap: square"/>
   </g>
   <g id="patch_13">
    <path d="M 133.696953 343.664531 
L 678.144087 343.664531 
" style="fill: none; stroke: #cccccc; stroke-width: 1.875; stroke-linejoin: miter; stroke-linecap: square"/>
   </g>
   <g id="patch_14">
    <path d="M 133.696953 7.2 
L 678.144087 7.2 
" style="fill: none; stroke: #cccccc; stroke-width: 1.875; stroke-linejoin: miter; stroke-linecap: square"/>
   </g>
  </g>
 </g>
 <defs>
  <clipPath id="p0eade377bb">
   <rect x="133.696953" y="7.2" width="544.447134" height="336.464531"/>
  </clipPath>
 </defs>
</svg>
